#N canvas 1920 58 1920 1022 10;
#X obj -41 -180 s start;
#X obj -41 -221 loadbang;
#X obj -41 -199 bng 15 250 50 0 empty empty empty 20 8 0 8 -24198 -1
-1;
#X obj -350 -174 openpanel;
#X obj -350 -193 bng 15 250 50 0 empty empty empty 20 8 0 8 -24198
-1 -1;
#X symbolatom -294 -85 40 0 0 0 - - -, f 40;
#X obj -371 -171 bng 15 250 50 0 empty empty empty 20 8 0 8 -262144
-1 -1;
#X obj 306 362 s bpm;
#X floatatom 306 334 5 0 0 0 - - -, f 5;
#X msg 306 312 120;
#N canvas 0 50 298 306 bpm-to-playrate 0;
#X obj 122 33 r samplesize;
#X obj 38 34 r bpm;
#X obj 74 32 r bpbar;
#X obj 130 104 samplerate~;
#X obj 106 6 r start;
#X obj 50 108 /;
#X obj 50 86 t b f;
#X obj 122 128 /;
#X msg 92 130 60;
#X obj 110 174 /;
#X obj 112 152 t b f;
#X floatatom 108 198 5 0 0 0 - - -, f 5;
#X floatatom 50 132 5 0 0 0 - - -, f 5;
#X obj 90 244 /;
#X obj 96 222 t b f;
#X obj 91 273 outlet;
#X msg 92 57 4;
#X text 132 55 <-- assumes 4 beats per bar here;
#X connect 0 0 7 0;
#X connect 1 0 5 0;
#X connect 2 0 6 0;
#X connect 3 0 7 1;
#X connect 4 0 3 0;
#X connect 4 0 8 0;
#X connect 4 0 16 0;
#X connect 5 0 12 0;
#X connect 6 0 5 0;
#X connect 6 1 5 1;
#X connect 7 0 10 0;
#X connect 8 0 9 0;
#X connect 9 0 11 0;
#X connect 10 0 9 0;
#X connect 10 1 9 1;
#X connect 11 0 14 0;
#X connect 12 0 13 0;
#X connect 13 0 15 0;
#X connect 14 0 13 0;
#X connect 14 1 13 1;
#X connect 16 0 6 0;
#X restore 308 416 pd bpm-to-playrate;
#X floatatom 308 438 5 0 0 0 - - -, f 5;
#X obj 323 491 s playrate;
#N canvas 0 50 274 288 tap-bpm 0;
#X obj 47 26 inlet;
#X obj 45 68 bng 15 250 50 0 empty empty empty 20 8 0 8 -262144 -1
-1;
#X obj 47 104 timer;
#X floatatom 47 128 5 0 0 0 - - -, f 5;
#X obj 67 154 mavg;
#X msg 91 105 3;
#X obj 51 179 /;
#X msg 25 155 60000;
#X obj 51 247 outlet;
#X connect 0 0 1 0;
#X connect 1 0 2 1;
#X connect 1 0 2 0;
#X connect 1 0 5 0;
#X connect 1 0 7 0;
#X connect 2 0 3 0;
#X connect 3 0 4 0;
#X connect 4 0 6 1;
#X connect 5 0 4 1;
#X connect 6 0 8 0;
#X connect 7 0 6 0;
#X restore 362 313 pd tap-bpm;
#X obj 362 293 bng 15 250 50 0 empty empty empty 20 8 0 8 -24198 -1
-1;
#X obj 360 363 s bpm;
#X floatatom 361 335 5 0 0 0 - - -, f 5;
#X obj -41 -144 bng 15 250 50 0 empty empty empty 0 -6 0 8 -24198 -1
-1;
#X obj -41 -126 s retrigger;
#X text 384 290 <-- tap bpm button;
#X text -316 -194 <-- bang to open loop sample;
#X obj 300 288 r start;
#X text 299 214 some other fun tools to patch in to the play-rate parameter
;
#X obj -472 -235 bng 15 250 50 0 empty empty empty 20 8 0 8 -24198
-1 -1;
#X text -448 -240 <-- 1 bang to open sample and start playback;
#X floatatom -370 193 5 0 0 0 - - -, f 5;
#X obj -444 453 vsl 15 400 0 1 0 0 empty empty grain-position -24 -32
0 8 -241291 -258699 -143491 0 0;
#X obj -329 436 vsl 15 400 0 1 0 0 empty empty empty 20 8 0 8 -44926
-258699 -1 0 1;
#N canvas 504 136 306 212 grainpos-calc 0;
#X obj 40 22 inlet;
#X obj 102 22 inlet;
#X obj 132 81 tgl 15 0 empty empty empty 20 8 0 8 -262144 -1 -1 0 1
;
#X obj 45 146 s grainposition;
#X obj 132 59 > 0;
#X obj 143 23 r random-rate;
#N canvas 0 50 454 216 rand-ms 0;
#X obj 90 30 inlet;
#X obj 144 32 inlet;
#X obj 24 168 outlet;
#X obj 11 66 noise~;
#X obj 19 144 snapshot~;
#X obj 91 68 metro 100;
#X obj 11 88 /~ 2;
#X obj 11 110 +~ 0.5;
#X text 102 112 produces a random number between o and 1 every x milliseconds
where x is on the second inlet. defaults to 100ms per random value
;
#X connect 0 0 5 0;
#X connect 1 0 5 1;
#X connect 3 0 6 0;
#X connect 4 0 2 0;
#X connect 5 0 4 0;
#X connect 6 0 7 0;
#X connect 7 0 4 0;
#X restore 132 100 pd rand-ms;
#N canvas 0 50 456 306 range 0;
#X obj 20 22 inlet;
#X obj 78 22 inlet;
#X obj 132 22 inlet;
#X obj 96 134 +;
#X obj 78 44 / 2;
#X obj 44 134 -;
#X obj 78 66 t b f;
#X obj 36 234 outlet;
#X text 121 183 takes a centre float and a range float and a position
(0 to 1) and outputs a number proportionately within the range from
the centre figure;
#N canvas 0 50 506 302 from-to 0;
#X obj 91 150 *;
#X obj 61 120 -;
#X obj 45 94 t b f;
#X obj 91 120 t b f;
#X obj 131 120 t;
#X obj 81 178 +;
#X obj 10 20 inlet;
#X obj 194 20 inlet;
#X obj 76 262 outlet;
#X obj 54 20 inlet;
#X text 131 161 takes a left limit and a right limit and a position
(0 to 1) and outputs a number proportionally distanced between the
left and right limits;
#X connect 0 0 5 0;
#X connect 1 0 0 0;
#X connect 2 0 1 0;
#X connect 2 0 5 0;
#X connect 2 1 1 1;
#X connect 2 1 5 1;
#X connect 3 0 0 0;
#X connect 3 1 0 1;
#X connect 4 0 0 0;
#X connect 5 0 8 0;
#X connect 6 0 2 0;
#X connect 7 0 4 0;
#X connect 7 0 1 0;
#X connect 9 0 3 0;
#X restore 44 158 pd from-to;
#X connect 0 0 3 0;
#X connect 0 0 5 0;
#X connect 1 0 4 0;
#X connect 2 0 9 1;
#X connect 3 0 9 2;
#X connect 4 0 6 0;
#X connect 5 0 9 0;
#X connect 6 0 3 0;
#X connect 6 0 5 0;
#X connect 6 1 3 1;
#X connect 6 1 5 1;
#X connect 9 0 7 0;
#X restore 45 124 pd range;
#X connect 0 0 7 0;
#X connect 1 0 4 0;
#X connect 1 0 7 1;
#X connect 2 0 6 0;
#X connect 4 0 2 0;
#X connect 5 0 6 1;
#X connect 6 0 7 2;
#X connect 7 0 3 0;
#X restore -431 923 pd grainpos-calc;
#X obj -357 333 s random-rate;
#N canvas 536 50 454 304 bang-timer 0;
#X obj 47 26 inlet;
#X obj 45 68 bng 15 250 50 0 empty empty empty 20 8 0 8 -262144 -1
-1;
#X obj 47 104 timer;
#X obj 67 154 mavg;
#X msg 91 105 3;
#X obj 51 247 outlet;
#X connect 0 0 1 0;
#X connect 1 0 2 1;
#X connect 1 0 2 0;
#X connect 1 0 4 0;
#X connect 2 0 3 0;
#X connect 3 0 5 0;
#X connect 4 0 3 1;
#X restore -357 311 pd bang-timer;
#X obj -260 435 vsl 15 400 0.0001 1 1 1 empty empty grain-size -12
-16 0 8 -241291 -258699 -143491 20189 1;
#X obj -235 436 vsl 15 400 0 1 0 1 empty empty empty 20 8 0 8 -44926
-258699 -1 0 1;
#X obj -210 289 r start;
#N canvas 768 50 380 346 grainsize-calc 0;
#X obj 164 94 tgl 15 0 empty empty empty 20 8 0 8 -262144 -1 -1 0 1
;
#X obj 80 116 *;
#X obj 80 94 t b f;
#X obj 125 116 *;
#X obj 125 94 t b f;
#X obj 105 276 s grainsize;
#X obj 105 254 moses 1;
#X obj 164 72 > 0;
#X obj 80 27 inlet;
#X obj 136 25 inlet;
#X obj 18 25 inlet;
#X obj 106 65 / 2;
#X obj 185 27 r random-rate;
#N canvas 0 50 458 308 range 0;
#X obj 20 22 inlet;
#X obj 78 22 inlet;
#X obj 132 22 inlet;
#X obj 96 134 +;
#X obj 78 44 / 2;
#X obj 44 134 -;
#X obj 78 66 t b f;
#X obj 36 234 outlet;
#X text 121 183 takes a centre float and a range float and a position
(0 to 1) and outputs a number proportionately within the range from
the centre figure;
#N canvas 0 50 506 302 from-to 0;
#X obj 91 150 *;
#X obj 61 120 -;
#X obj 45 94 t b f;
#X obj 91 120 t b f;
#X obj 131 120 t;
#X obj 81 178 +;
#X obj 10 20 inlet;
#X obj 194 20 inlet;
#X obj 76 262 outlet;
#X obj 54 20 inlet;
#X text 131 161 takes a left limit and a right limit and a position
(0 to 1) and outputs a number proportionally distanced between the
left and right limits;
#X connect 0 0 5 0;
#X connect 1 0 0 0;
#X connect 2 0 1 0;
#X connect 2 0 5 0;
#X connect 2 1 1 1;
#X connect 2 1 5 1;
#X connect 3 0 0 0;
#X connect 3 1 0 1;
#X connect 4 0 0 0;
#X connect 5 0 8 0;
#X connect 6 0 2 0;
#X connect 7 0 4 0;
#X connect 7 0 1 0;
#X connect 9 0 3 0;
#X restore 44 158 pd from-to;
#X connect 0 0 3 0;
#X connect 0 0 5 0;
#X connect 1 0 4 0;
#X connect 2 0 9 1;
#X connect 3 0 9 2;
#X connect 4 0 6 0;
#X connect 5 0 9 0;
#X connect 6 0 3 0;
#X connect 6 0 5 0;
#X connect 6 1 3 1;
#X connect 6 1 5 1;
#X connect 9 0 7 0;
#X restore 103 230 pd range;
#N canvas 0 50 452 214 rand-ms 0;
#X obj 90 30 inlet;
#X obj 144 32 inlet;
#X obj 24 168 outlet;
#X obj 11 66 noise~;
#X obj 19 144 snapshot~;
#X obj 91 68 metro 100;
#X obj 11 88 /~ 2;
#X obj 11 110 +~ 0.5;
#X text 102 112 produces a random number between o and 1 every x milliseconds
where x is on the second inlet. defaults to 100ms per random value
;
#X connect 0 0 5 0;
#X connect 1 0 5 1;
#X connect 3 0 6 0;
#X connect 4 0 2 0;
#X connect 5 0 4 0;
#X connect 6 0 7 0;
#X connect 7 0 4 0;
#X restore 166 112 pd rand-ms;
#X connect 0 0 14 0;
#X connect 1 0 13 0;
#X connect 2 0 1 0;
#X connect 2 1 1 1;
#X connect 3 0 13 1;
#X connect 4 0 3 0;
#X connect 4 1 3 1;
#X connect 6 1 5 0;
#X connect 7 0 0 0;
#X connect 8 0 2 0;
#X connect 9 0 4 0;
#X connect 9 0 7 0;
#X connect 10 0 11 0;
#X connect 10 0 1 0;
#X connect 11 0 3 0;
#X connect 12 0 14 1;
#X connect 13 0 6 0;
#X connect 14 0 13 2;
#X restore -374 887 pd grainsize-calc;
#X obj -374 843 r samplesize;
#X obj -374 865 / 2;
#X obj -70 436 vsl 15 400 0.01 30 1 1 empty empty grain-density -24
-32 0 8 -241291 -258699 -143491 30971 0;
#X obj -273 250 s playrate;
#X obj -52 1005 s play-grain-density;
#X msg -96 378 1;
#X obj -178 436 vsl 15 400 0.01 20 1 1 empty empty grain-transpose
-24 -32 0 8 -241291 -258699 -143491 27725 1;
#X obj -149 436 vsl 15 400 0.01 1 1 0 empty empty empty 20 8 0 8 -44926
-258699 -1 0 1;
#X obj -12 710 vsl 15 128 0 1 0 0 empty empty grain-pan -12 -24 0 8
-241291 -258699 -143491 6350 1;
#X obj 13 710 vsl 15 128 0 1 0 0 empty empty empty 20 8 0 8 -44926
-258699 -1 0 1;
#X obj 44 648 r start;
#X obj -250 845 r start;
#X msg -12 686 0.5;
#N canvas 343 98 412 274 graintranspose-calc 0;
#X obj 32 15 inlet;
#X obj 158 17 inlet;
#X obj 192 104 tgl 15 0 empty empty empty 20 8 0 8 -262144 -1 -1 0
1;
#X obj 108 126 *;
#X obj 108 104 t b f;
#X obj 153 126 *;
#X obj 153 104 t b f;
#X obj 175 225 s graintranspose;
#X obj 175 203 moses 0.01;
#X obj 192 82 > 0;
#X obj 72 17 inlet;
#X obj 72 62 / 2;
#X obj 203 21 r random-rate;
#N canvas 0 50 454 216 rand-ms 0;
#X obj 90 30 inlet;
#X obj 144 32 inlet;
#X obj 24 168 outlet;
#X obj 11 66 noise~;
#X obj 19 144 snapshot~;
#X obj 91 68 metro 100;
#X obj 11 88 /~ 2;
#X obj 11 110 +~ 0.5;
#X text 102 112 produces a random number between o and 1 every x milliseconds
where x is on the second inlet. defaults to 100ms per random value
;
#X connect 0 0 5 0;
#X connect 1 0 5 1;
#X connect 3 0 6 0;
#X connect 4 0 2 0;
#X connect 5 0 4 0;
#X connect 6 0 7 0;
#X connect 7 0 4 0;
#X restore 192 124 pd rand-ms;
#N canvas 0 50 458 308 range 0;
#X obj 20 22 inlet;
#X obj 78 22 inlet;
#X obj 132 22 inlet;
#X obj 96 134 +;
#X obj 78 44 / 2;
#X obj 44 134 -;
#X obj 78 66 t b f;
#X obj 36 234 outlet;
#X text 121 183 takes a centre float and a range float and a position
(0 to 1) and outputs a number proportionately within the range from
the centre figure;
#N canvas 0 50 506 302 from-to 0;
#X obj 91 150 *;
#X obj 61 120 -;
#X obj 45 94 t b f;
#X obj 91 120 t b f;
#X obj 131 120 t;
#X obj 81 178 +;
#X obj 10 20 inlet;
#X obj 194 20 inlet;
#X obj 76 262 outlet;
#X obj 54 20 inlet;
#X text 131 161 takes a left limit and a right limit and a position
(0 to 1) and outputs a number proportionally distanced between the
left and right limits;
#X connect 0 0 5 0;
#X connect 1 0 0 0;
#X connect 2 0 1 0;
#X connect 2 0 5 0;
#X connect 2 1 1 1;
#X connect 2 1 5 1;
#X connect 3 0 0 0;
#X connect 3 1 0 1;
#X connect 4 0 0 0;
#X connect 5 0 8 0;
#X connect 6 0 2 0;
#X connect 7 0 4 0;
#X connect 7 0 1 0;
#X connect 9 0 3 0;
#X restore 44 158 pd from-to;
#X connect 0 0 3 0;
#X connect 0 0 5 0;
#X connect 1 0 4 0;
#X connect 2 0 9 1;
#X connect 3 0 9 2;
#X connect 4 0 6 0;
#X connect 5 0 9 0;
#X connect 6 0 3 0;
#X connect 6 0 5 0;
#X connect 6 1 3 1;
#X connect 6 1 5 1;
#X connect 9 0 7 0;
#X restore 173 178 pd range;
#X connect 0 0 3 0;
#X connect 0 0 11 0;
#X connect 1 0 6 0;
#X connect 1 0 9 0;
#X connect 2 0 13 0;
#X connect 3 0 14 0;
#X connect 4 0 3 0;
#X connect 4 1 3 1;
#X connect 5 0 14 1;
#X connect 6 0 5 0;
#X connect 6 1 5 1;
#X connect 8 1 7 0;
#X connect 9 0 2 0;
#X connect 10 0 4 0;
#X connect 11 0 5 0;
#X connect 12 0 13 1;
#X connect 13 0 14 2;
#X connect 14 0 8 0;
#X restore -248 917 pd graintranspose-calc;
#N canvas 0 50 294 278 grainpan 0;
#X obj 88 87 tgl 15 0 empty empty empty 20 8 0 8 -262144 -1 -1 0 1
;
#X obj 73 232 s grainpan;
#X obj 88 65 > 0;
#X obj 22 20 inlet;
#X obj 70 18 inlet;
#X obj 117 19 r random-rate;
#N canvas 0 50 454 304 range 0;
#X obj 20 22 inlet;
#X obj 78 22 inlet;
#X obj 132 22 inlet;
#X obj 96 134 +;
#X obj 78 44 / 2;
#X obj 44 134 -;
#X obj 78 66 t b f;
#X obj 36 234 outlet;
#X text 121 183 takes a centre float and a range float and a position
(0 to 1) and outputs a number proportionately within the range from
the centre figure;
#N canvas 0 50 506 302 from-to 0;
#X obj 91 150 *;
#X obj 61 120 -;
#X obj 45 94 t b f;
#X obj 91 120 t b f;
#X obj 131 120 t;
#X obj 81 178 +;
#X obj 10 20 inlet;
#X obj 194 20 inlet;
#X obj 76 262 outlet;
#X obj 54 20 inlet;
#X text 131 161 takes a left limit and a right limit and a position
(0 to 1) and outputs a number proportionally distanced between the
left and right limits;
#X connect 0 0 5 0;
#X connect 1 0 0 0;
#X connect 2 0 1 0;
#X connect 2 0 5 0;
#X connect 2 1 1 1;
#X connect 2 1 5 1;
#X connect 3 0 0 0;
#X connect 3 1 0 1;
#X connect 4 0 0 0;
#X connect 5 0 8 0;
#X connect 6 0 2 0;
#X connect 7 0 4 0;
#X connect 7 0 1 0;
#X connect 9 0 3 0;
#X restore 42 166 pd from-to;
#X connect 0 0 3 0;
#X connect 0 0 5 0;
#X connect 1 0 4 0;
#X connect 2 0 9 1;
#X connect 3 0 9 2;
#X connect 4 0 6 0;
#X connect 5 0 9 0;
#X connect 6 0 3 0;
#X connect 6 0 5 0;
#X connect 6 1 3 1;
#X connect 6 1 5 1;
#X connect 9 0 7 0;
#X restore 71 208 pd range;
#N canvas 0 50 452 214 rand-ms 0;
#X obj 90 30 inlet;
#X obj 144 32 inlet;
#X obj 24 168 outlet;
#X obj 11 66 noise~;
#X obj 19 144 snapshot~;
#X obj 91 68 metro 100;
#X obj 11 88 /~ 2;
#X obj 11 110 +~ 0.5;
#X text 102 112 produces a random number between o and 1 every x milliseconds
where x is on the second inlet. defaults to 100ms per random value
;
#X connect 0 0 5 0;
#X connect 1 0 5 1;
#X connect 3 0 6 0;
#X connect 4 0 2 0;
#X connect 5 0 4 0;
#X connect 6 0 7 0;
#X connect 7 0 4 0;
#X restore 90 108 pd rand-ms;
#X connect 0 0 7 0;
#X connect 2 0 0 0;
#X connect 3 0 6 0;
#X connect 4 0 2 0;
#X connect 4 0 6 1;
#X connect 5 0 7 1;
#X connect 6 0 1 0;
#X connect 7 0 6 2;
#X restore -12 845 pd grainpan;
#X obj 34 451 *;
#X obj 34 429 t b f;
#X obj 133 314 r grainposition;
#N canvas 0 50 414 318 up-or-dn 0;
#X obj 18 132 <;
#X obj 18 154 * -2;
#X obj 18 176 + 1;
#X obj 18 110 t f f;
#X obj 19 10 inlet;
#X obj 19 272 outlet;
#X text 56 39 this unit outputs a +1 if the current input is greater
than the previous input \, and outputs a -1 if the current input is
less than the previous input.;
#X connect 0 0 1 0;
#X connect 1 0 2 0;
#X connect 2 0 5 0;
#X connect 3 0 0 1;
#X connect 3 1 0 0;
#X connect 4 0 3 0;
#X restore 34 407 pd up-or-dn;
#X obj 7 300 r grainsize;
#X msg 7 494 94;
#X obj 173 270 r grainpan;
#X obj -1 270 r graintranspose;
#X obj 165 517 s samplesize;
#X obj -12 472 nm-poly-stereo-grain 15;
#X obj -97 357 tgl 15 0 empty empty stop-start -16 -16 0 8 -241291
-258699 -143491 0 1;
#X obj -105 317 t b f;
#X msg -233 386 0;
#X msg -149 412 0;
#X msg 13 686 0;
#X msg -329 376 0;
#X obj -53 980 nbx 5 14 0.01 50 0 0 empty empty empty 0 -6 0 10 -241291
-1 -1 5 256;
#X obj -355 355 bng 15 250 50 0 empty empty empty 0 -6 0 8 -241291
-1 -1;
#X obj -328 355 bng 15 250 50 0 empty empty empty 0 -6 0 8 -44926 -1
-1;
#X obj -260 357 bng 15 250 50 0 empty empty empty 0 -6 0 8 -241291
-1 -1;
#X obj -234 357 bng 15 250 50 0 empty empty empty 0 -6 0 8 -44926 -1
-1;
#X obj -268 333 s retrigger;
#X obj -180 357 bng 15 250 50 0 empty empty empty 0 -6 0 8 -241291
-1 -1;
#X obj -150 357 bng 15 250 50 0 empty empty empty 0 -6 0 8 -44926 -1
-1;
#X obj -70 357 bng 15 250 50 0 empty empty empty 0 -6 0 8 -241291 -1
-1;
#X obj -12 649 bng 15 250 50 0 empty empty empty 0 -6 0 8 -241291 -1
-1;
#X obj 14 649 bng 15 250 50 0 empty empty empty 0 -6 0 8 -44926 -1
-1;
#X obj -38 896 cnv 15 220 30 empty empty blue-for-randomness-amount
20 12 0 8 -241291 -62784 0;
#X obj -36 345 cnv 15 230 30 empty empty <--buttons-reset-default-values
8 16 0 8 -241291 -1 0;
#X obj -264 954 r grainsize;
#X obj -179 978 nbx 5 14 0.01 50 0 0 empty empty empty 0 -6 0 10 -241291
-1 -1 1.9668 256;
#X obj -259 978 nbx 5 14 1 96000 0 0 empty empty empty 0 -6 0 10 -241291
-1 -1 7162.84 256;
#X msg -250 865 1;
#X msg -68 378 5;
#X msg -274 388 0.01;
#X obj -258 223 nbx 5 14 -50 50 0 0 empty empty empty 0 -6 0 10 -241291
-1 -1 0 256;
#X floatatom -444 861 5 0 0 0 - - -, f 5;
#X obj 16 596 outlet~;
#X obj 154 576 outlet~;
#X obj -234 -37 loadbang;
#X msg -301 178 0;
#X obj 596 -198 inlet;
#X obj 596 -175 s \$0-position;
#X obj -444 379 r \$0-position;
#X obj 776 -201 inlet;
#X msg -178 412 1;
#X msg -223 60 ../../WAV/ice-1.wav;
#X obj 776 -159 s \$0-param1;
#X obj 895 -201 inlet;
#X obj 895 -159 s \$0-param2;
#X obj 183 53 r \$0-param2;
#X floatatom 183 113 5 0 0 0 - - -, f 5;
#N canvas 2802 428 450 300 proc 0;
#X obj 224 96 inlet;
#X obj 224 188 outlet;
#X obj 224 119 + 1;
#X obj 224 165 + 0;
#X obj 224 142 * 2;
#X connect 0 0 2 0;
#X connect 2 0 4 0;
#X connect 3 0 1 0;
#X connect 4 0 3 0;
#X restore 262 176 pd proc;
#X floatatom 262 199 5 0 0 0 - - -, f 5;
#X obj -360 74 init \$1;
#X obj -360 97 print LOADING;
#X obj -5 94 r \$0-param1;
#X floatatom -5 137 5 0 0 0 - - -, f 5;
#N canvas 2802 428 450 300 proc 0;
#X obj 224 96 inlet;
#X obj 224 188 outlet;
#X obj 224 119 + 1;
#X obj 224 165 + 0;
#X obj 224 142 * 0.01;
#X connect 0 0 2 0;
#X connect 2 0 4 0;
#X connect 3 0 1 0;
#X connect 4 0 3 0;
#X restore -5 172 pd proc;
#X floatatom -5 195 5 0 0 0 - - -, f 5;
#X floatatom 183 76 5 0 0 0 - - -, f 5;
#X obj 183 94 * 0.1;
#X connect 1 0 2 0;
#X connect 2 0 0 0;
#X connect 3 0 5 0;
#X connect 4 0 3 0;
#X connect 6 0 5 0;
#X connect 9 0 8 0;
#X connect 10 0 11 0;
#X connect 13 0 16 0;
#X connect 14 0 13 0;
#X connect 17 0 18 0;
#X connect 21 0 9 0;
#X connect 23 0 96 0;
#X connect 26 0 28 0;
#X connect 26 0 86 0;
#X connect 27 0 28 1;
#X connect 30 0 29 0;
#X connect 31 0 34 1;
#X connect 32 0 34 2;
#X connect 33 0 84 0;
#X connect 33 0 95 0;
#X connect 33 0 62 0;
#X connect 33 0 63 0;
#X connect 33 0 65 0;
#X connect 33 0 40 0;
#X connect 33 0 83 0;
#X connect 35 0 36 0;
#X connect 36 0 34 0;
#X connect 37 0 66 0;
#X connect 41 0 80 0;
#X connect 42 0 48 2;
#X connect 43 0 49 0;
#X connect 44 0 49 1;
#X connect 45 0 47 0;
#X connect 45 0 64 0;
#X connect 45 0 55 0;
#X connect 46 0 82 0;
#X connect 47 0 43 0;
#X connect 50 0 59 1;
#X connect 51 0 50 0;
#X connect 51 1 50 1;
#X connect 52 0 53 0;
#X connect 52 0 59 2;
#X connect 53 0 51 0;
#X connect 54 0 50 0;
#X connect 56 0 59 3;
#X connect 57 0 59 0;
#X connect 59 0 87 0;
#X connect 59 1 88 0;
#X connect 59 2 58 0;
#X connect 60 0 61 0;
#X connect 62 0 32 0;
#X connect 63 0 42 0;
#X connect 64 0 44 0;
#X connect 65 0 27 0;
#X connect 66 0 39 0;
#X connect 67 0 71 0;
#X connect 68 0 65 0;
#X connect 69 0 84 0;
#X connect 70 0 62 0;
#X connect 72 0 95 0;
#X connect 73 0 63 0;
#X connect 74 0 83 0;
#X connect 75 0 47 0;
#X connect 76 0 64 0;
#X connect 79 0 81 0;
#X connect 80 0 48 1;
#X connect 82 0 48 0;
#X connect 83 0 37 0;
#X connect 84 0 31 0;
#X connect 85 0 38 0;
#X connect 89 0 96 0;
#X connect 90 0 38 0;
#X connect 91 0 92 0;
#X connect 93 0 26 0;
#X connect 94 0 97 0;
#X connect 95 0 41 0;
#X connect 96 0 59 0;
#X connect 96 0 40 0;
#X connect 98 0 99 0;
#X connect 100 0 110 0;
#X connect 101 0 102 0;
#X connect 102 0 103 0;
#X connect 103 0 41 0;
#X connect 104 0 105 0;
#X connect 104 0 40 0;
#X connect 104 0 59 0;
#X connect 106 0 107 0;
#X connect 107 0 108 0;
#X connect 108 0 109 0;
#X connect 109 0 31 0;
#X connect 110 0 111 0;
#X connect 111 0 101 0;
#X coords 0 -1 1 1 123 123 1 100 100;
