#N canvas 0 106 1920 974 10;
#X declare -path stretcher;
#X obj 610 180 r x;
#X obj 468 655 r y;
#X floatatom 487 737 5 0 0 0 - - -, f 5;
#X obj 502 879 *~;
#X obj 559 871 *~;
#X obj 1448 462 r x;
#X obj 674 890 *~;
#X obj 731 882 *~;
#X obj 16 15 declare -path stretcher;
#N canvas 0 106 1920 974 filt 0;
#X text 491 351 q;
#X floatatom 428 362 5 0 0 0 - - -, f 5;
#X obj 337 431 vcf~ 1;
#X text 407 423 optional argument to initialize q;
#X obj 181 203 inlet~;
#X obj 357 222 inlet;
#X obj 362 318 sig~;
#X obj 357 245 + 1;
#X obj 480 316 loadbang;
#X obj 344 505 outlet~;
#X floatatom 412 307 5 0 0 0 - - -, f 5;
#X msg 480 339 1;
#X obj 357 268 * 5000;
#X connect 1 0 2 2;
#X connect 2 0 9 0;
#X connect 4 0 2 0;
#X connect 5 0 7 0;
#X connect 6 0 2 1;
#X connect 7 0 12 0;
#X connect 8 0 11 0;
#X connect 11 0 1 0;
#X connect 12 0 6 0;
#X connect 12 0 10 0;
#X restore 479 962 pd filt;
#X obj 574 1067 dac~ 1 2 3 4;
#X obj 519 902 r y;
#N canvas 0 106 1920 974 filt 0;
#X text 491 351 q;
#X floatatom 428 362 5 0 0 0 - - -, f 5;
#X obj 337 431 vcf~ 1;
#X text 407 423 optional argument to initialize q;
#X obj 181 203 inlet~;
#X obj 357 222 inlet;
#X obj 362 318 sig~;
#X obj 357 245 + 1;
#X obj 480 316 loadbang;
#X obj 344 505 outlet~;
#X floatatom 412 307 5 0 0 0 - - -, f 5;
#X msg 480 339 1;
#X obj 357 268 * 5000;
#X connect 1 0 2 2;
#X connect 2 0 9 0;
#X connect 4 0 2 0;
#X connect 5 0 7 0;
#X connect 6 0 2 1;
#X connect 7 0 12 0;
#X connect 8 0 11 0;
#X connect 11 0 1 0;
#X connect 12 0 6 0;
#X connect 12 0 10 0;
#X restore 568 974 pd filt;
#N canvas 0 106 1920 974 filt 0;
#X text 491 351 q;
#X floatatom 428 362 5 0 0 0 - - -, f 5;
#X obj 337 431 vcf~ 1;
#X text 407 423 optional argument to initialize q;
#X obj 181 203 inlet~;
#X obj 357 222 inlet;
#X obj 362 318 sig~;
#X obj 357 245 + 1;
#X obj 480 316 loadbang;
#X obj 344 505 outlet~;
#X floatatom 412 307 5 0 0 0 - - -, f 5;
#X msg 480 339 1;
#X obj 357 268 * 5000;
#X connect 1 0 2 2;
#X connect 2 0 9 0;
#X connect 4 0 2 0;
#X connect 5 0 7 0;
#X connect 6 0 2 1;
#X connect 7 0 12 0;
#X connect 8 0 11 0;
#X connect 11 0 1 0;
#X connect 12 0 6 0;
#X connect 12 0 10 0;
#X restore 643 990 pd filt;
#X obj 683 930 r y;
#X obj 608 914 r x;
#X obj 1409 94 r y;
#N canvas 0 106 1920 974 filt 0;
#X text 491 351 q;
#X floatatom 428 362 5 0 0 0 - - -, f 5;
#X obj 337 431 vcf~ 1;
#X text 407 423 optional argument to initialize q;
#X obj 181 203 inlet~;
#X obj 357 222 inlet;
#X obj 362 318 sig~;
#X obj 357 245 + 1;
#X obj 480 316 loadbang;
#X obj 344 505 outlet~;
#X floatatom 412 307 5 0 0 0 - - -, f 5;
#X msg 480 339 1;
#X obj 357 268 * 5000;
#X connect 1 0 2 2;
#X connect 2 0 9 0;
#X connect 4 0 2 0;
#X connect 5 0 7 0;
#X connect 6 0 2 1;
#X connect 7 0 12 0;
#X connect 8 0 11 0;
#X connect 11 0 1 0;
#X connect 12 0 6 0;
#X connect 12 0 10 0;
#X restore 709 996 pd filt;
#X obj 749 936 r x;
#X obj 1568 739 r y;
#X floatatom 62 260 5 0 0 0 - - -, f 5;
#X obj 69 164 r l;
#X floatatom 69 187 5 0 0 0 - - -, f 5;
#X floatatom 778 104 5 0 0 0 - - -, f 5;
#X obj 785 8 r l;
#X floatatom 785 31 5 0 0 0 - - -, f 5;
#X floatatom 905 436 5 0 0 0 - - -, f 5;
#X obj 912 340 r l;
#X floatatom 912 363 5 0 0 0 - - -, f 5;
#X floatatom 1514 749 5 0 0 0 - - -, f 5;
#X obj 1521 653 r l;
#X floatatom 1521 676 5 0 0 0 - - -, f 5;
#X obj 66 227 pow 2;
#X obj 909 403 pow 2;
#X obj 1518 716 pow 2;
#X obj 782 71 pow 2;
#X obj 63 290 sound-scroller ../../WAV/bells-1.wav 4096 100 80000 -200
;
#X obj 861 141 sound-scroller ../../WAV/bells-1.wav 4096 100 80000
200;
#X obj 900 508 sound-scroller ../../WAV/bells-1.wav 4096 100 80000
200;
#X obj 1020 786 sound-scroller ../../WAV/bells-1.wav 4096 100 80000
-200;
#X obj 613 222 *;
#X obj 480 701 + 1;
#X obj 660 204 * 5;
#X obj 1473 112 *;
#X obj 1520 94 * 5;
#X obj 1485 469 *;
#X obj 1532 451 * 5;
#X obj 1629 789 *;
#X obj 1676 771 * 5;
#X obj 564 667 r l;
#X floatatom 571 750 5 0 0 0 - - -, f 5;
#X obj 569 702 + 0.5;
#X obj 560 735 * 1;
#X obj 528 822 * 0.125;
#X obj 699 833 * 0.125;
#X connect 0 0 40 0;
#X connect 1 0 41 0;
#X connect 2 0 53 0;
#X connect 2 0 54 0;
#X connect 3 0 9 0;
#X connect 4 0 12 0;
#X connect 5 0 45 0;
#X connect 6 0 13 0;
#X connect 7 0 17 0;
#X connect 9 0 10 0;
#X connect 11 0 9 1;
#X connect 12 0 10 1;
#X connect 13 0 10 2;
#X connect 14 0 13 1;
#X connect 15 0 12 1;
#X connect 16 0 43 0;
#X connect 17 0 10 3;
#X connect 18 0 17 1;
#X connect 19 0 47 0;
#X connect 20 0 36 0;
#X connect 21 0 22 0;
#X connect 22 0 32 0;
#X connect 23 0 37 0;
#X connect 24 0 25 0;
#X connect 25 0 35 0;
#X connect 26 0 38 0;
#X connect 27 0 28 0;
#X connect 28 0 33 0;
#X connect 29 0 39 0;
#X connect 30 0 31 0;
#X connect 31 0 34 0;
#X connect 32 0 20 0;
#X connect 32 0 42 0;
#X connect 33 0 26 0;
#X connect 33 0 46 0;
#X connect 34 0 29 0;
#X connect 34 0 48 0;
#X connect 35 0 23 0;
#X connect 35 0 44 0;
#X connect 36 0 3 0;
#X connect 37 0 4 0;
#X connect 38 0 6 0;
#X connect 39 0 7 0;
#X connect 40 0 36 1;
#X connect 41 0 2 0;
#X connect 42 0 40 1;
#X connect 43 0 37 1;
#X connect 44 0 43 1;
#X connect 45 0 38 1;
#X connect 46 0 45 1;
#X connect 47 0 39 1;
#X connect 48 0 47 1;
#X connect 49 0 51 0;
#X connect 51 0 50 0;
#X connect 51 0 52 0;
#X connect 52 0 53 1;
#X connect 52 0 54 1;
#X connect 53 0 3 1;
#X connect 53 0 4 1;
#X connect 54 0 6 1;
#X connect 54 0 7 1;
