#N canvas 1225 706 1280 675 10;
#X declare -path NM_Grainer_2;
#X obj 52 36 string_controller;
#X obj 337 253 declare -path NM_Grainer_2;
#X obj 172 217 nm-grainer;
#X obj 189 288 dac~ 1 2;
#X obj 163 147 string_processor;
#X connect 0 0 4 0;
#X connect 0 1 4 1;
#X connect 0 2 4 2;
#X connect 2 0 3 0;
#X connect 2 1 3 1;
#X connect 4 0 2 1;
#X connect 4 1 2 0;
