#N canvas 0 106 1920 974 10;
#X declare -path NM_Grainer_2;
#X declare -path stretcher;
#X declare -path string_controller;
#X obj 16 36 declare -path NM_Grainer_2;
#X obj 16 15 declare -path stretcher;
#X obj 17 58 declare -path string_controller;
#X obj 422 642 vsl 15 128 -1 1 0 0 empty empty empty 0 -9 0 10 -262144
-1 -1 0 1;
#X msg 166 521 \; pd dsp 1;
#X obj 166 498 loadbang;
#X obj 545 224 s y;
#X obj 400 216 s x;
#X obj 682 224 s l;
#X obj 1581 105 vsl 15 128 -1 1 0 0 empty empty empty 0 -9 0 10 -262144
-1 -1 0 1;
#X obj 1628 111 vsl 15 128 -1 1 0 0 empty empty empty 0 -9 0 10 -262144
-1 -1 0 1;
#X obj 1492 101 vsl 15 128 -1 1 0 0 empty empty empty 0 -9 0 10 -262144
-1 -1 0 1;
#X obj 1492 237 * 1;
#X obj 594 527 r y;
#X obj 555 528 r l;
#X obj 633 526 r x;
#X obj 517 722 dac~ 1 2;
#N canvas 2501 429 450 300 modify 0;
#X obj 219 49 inlet;
#X obj 232 160 outlet;
#X obj 219 72 + 1;
#X connect 0 0 2 0;
#X connect 2 0 1 0;
#X restore 1106 754 pd modify;
#X floatatom 1264 902 5 0 0 0 - - -, f 5;
#X obj 1267 859 r l;
#X obj 1813 885 r x;
#X obj 1252 1159 dac~ 1 2;
#X obj 553 562 nm-grainer /home/anwaldt/Desktop/ADFI_2019-04-10/interchange/ADFI_2019-04-10/audiofiles/ADA-19.wav
;
#X obj 570 73 udpreceive;
#X msg 570 50 port 4545;
#X obj 570 96 unpackOSC;
#X obj 400 153 routeOSC /x;
#X floatatom 400 176 5 0 0 0 - - -, f 5;
#X floatatom 549 172 5 0 0 0 - - -, f 5;
#X obj 549 149 routeOSC /y;
#X floatatom 678 179 5 0 0 0 - - -, f 5;
#X obj 678 156 routeOSC /l;
#X floatatom 986 221 5 0 0 0 - - -, f 5;
#X floatatom 1067 227 5 0 0 0 - - -, f 5;
#X obj 1020 323 +;
#X obj 986 285 abs;
#X obj 1067 286 abs;
#X floatatom 1020 386 5 0 0 0 - - -, f 5;
#X obj 1020 408 s deflection;
#X obj 1020 346 / 2;
#X obj 986 198 r x;
#X obj 1067 204 r y;
#X obj 571 16 loadbang;
#X obj 1434 355 /;
#X floatatom 1436 413 5 0 0 0 - - -, f 5;
#X floatatom 1442 517 5 0 0 0 - - -, f 5;
#X obj 1449 640 udpsend;
#X msg 1442 539 /track/1/azim \$1;
#X obj 1442 562 packOSC;
#X msg 1625 595 connect localhost 4002;
#X obj 1308 410 r x;
#X obj 1237 409 r y;
#X obj 1237 432 *;
#X obj 1308 433 *;
#X obj 1264 505 +;
#X floatatom 1270 579 5 0 0 0 - - -, f 5;
#X obj 1282 618 *;
#X obj 1370 591 r l;
#X obj 1280 693 packOSC;
#X msg 1280 670 /track/1/dist \$1;
#X obj 1264 528 sqrt;
#X obj 1436 458 + 90;
#X obj 1282 641 * 10;
#X obj 1435 384 tanh;
#X obj 1436 435 * 180;
#X obj 1410 320 r y;
#X obj 1481 321 r x;
#X obj 1265 933 sound-scroller /home/anwaldt/Desktop/ADFI_2019-04-10/interchange/ADFI_2019-04-10/audiofiles/ADA-3.wav
1024 100 3000 10;
#X floatatom 532 897 5 0 0 0 - - -, f 5;
#X obj 535 854 r l;
#X obj 1081 880 r x;
#X obj 533 928 sound-scroller /home/anwaldt/Desktop/ADFI_2019-04-10/interchange/ADFI_2019-04-10/audiofiles/ADA-19.wav
1024 100 3000 10;
#X obj 520 1154 dac~ 1 2;
#X connect 5 0 4 0;
#X connect 11 0 12 0;
#X connect 13 0 22 1;
#X connect 14 0 22 0;
#X connect 15 0 22 2;
#X connect 18 0 67 0;
#X connect 19 0 18 0;
#X connect 20 0 67 1;
#X connect 22 0 16 0;
#X connect 23 0 25 0;
#X connect 24 0 23 0;
#X connect 25 0 26 0;
#X connect 25 0 29 0;
#X connect 25 0 31 0;
#X connect 26 0 27 0;
#X connect 27 0 7 0;
#X connect 28 0 6 0;
#X connect 29 0 28 0;
#X connect 30 0 8 0;
#X connect 31 0 30 0;
#X connect 32 0 35 0;
#X connect 33 0 36 0;
#X connect 34 0 39 0;
#X connect 35 0 34 0;
#X connect 36 0 34 1;
#X connect 37 0 38 0;
#X connect 39 0 37 0;
#X connect 40 0 32 0;
#X connect 41 0 33 0;
#X connect 42 0 24 0;
#X connect 43 0 63 0;
#X connect 44 0 64 0;
#X connect 45 0 47 0;
#X connect 47 0 48 0;
#X connect 48 0 46 0;
#X connect 49 0 46 0;
#X connect 50 0 53 0;
#X connect 50 0 53 1;
#X connect 51 0 52 0;
#X connect 51 0 52 1;
#X connect 52 0 54 0;
#X connect 53 0 54 1;
#X connect 54 0 60 0;
#X connect 55 0 56 0;
#X connect 56 0 62 0;
#X connect 57 0 56 1;
#X connect 58 0 46 0;
#X connect 59 0 58 0;
#X connect 60 0 55 0;
#X connect 61 0 45 0;
#X connect 62 0 59 0;
#X connect 63 0 44 0;
#X connect 64 0 61 0;
#X connect 65 0 43 0;
#X connect 66 0 43 1;
#X connect 68 0 71 0;
#X connect 69 0 68 0;
#X connect 70 0 71 1;
#X connect 71 0 72 0;
#X connect 71 0 72 1;
