#N canvas 1920 58 1920 1022 10;
#X declare -path NM_Grainer_2;
#X declare -path stretcher;
#X declare -path string_controller;
#X obj 214 -72 string_controller;
#X obj 172 217 nm-grainer;
#X obj 389 191 string_to_cart;
#X obj 1060 604 declare -path NM_Grainer_2;
#X msg 679 -24 ../../WAV/SampLib_DPA_03.wav;
#X obj 870 498 volume-module;
#X floatatom 964 56 5 0 0 0 - - -, f 5;
#X text 1003 94 pitch;
#X floatatom 1181 255 5 0 0 0 - - -, f 5;
#X obj 881 60 loadbang;
#X msg 866 133 2048;
#X text 963 367 vol;
#X floatatom 950 465 5 0 0 0 - - -, f 5;
#X floatatom 1002 -33 5 0 0 0 - - -, f 5;
#X obj 963 -2 + 1;
#X floatatom 41 228 5 0 0 0 - - -, f 5;
#X obj 41 274 s \$0-derivative;
#X obj 949 443 line;
#X msg 949 420 \$1 100;
#X obj 1181 229 * 1;
#X floatatom 1181 174 5 0 0 0 - - -, f 5;
#X obj 1060 583 declare -path stretcher;
#X obj 1061 626 declare -path string_controller;
#X obj 214 28 s phi;
#X obj 348 41 s theta;
#X obj 528 25 s r;
#X obj 172 135 string_derivative;
#X obj 1675 137 r phi;
#X obj 1756 143 r theta;
#X floatatom 1675 160 5 0 0 0 - - -, f 5;
#X floatatom 1756 166 5 0 0 0 - - -, f 5;
#X obj 1709 262 +;
#X floatatom 958 -39 5 0 0 0 - - -, f 5;
#X obj 949 348 r deflection;
#X obj 939 -66 r r;
#X obj 1675 224 abs;
#X obj 1756 225 abs;
#X floatatom 1709 325 5 0 0 0 - - -, f 5;
#X obj 1709 347 s deflection;
#X obj 1709 285 / 2;
#X obj 963 34 * 10000;
#X obj 949 397 * 1000;
#X obj 1037 347 r \$0-derivative;
#X floatatom 1131 380 5 0 0 0 - - -, f 5;
#X obj 1181 59 r theta;
#X floatatom 1181 151 5 0 0 0 - - -, f 5;
#X obj 1181 128 line;
#X msg 1181 105 \$1 100;
#X floatatom 1196 198 5 0 0 0 - - -, f 5;
#X obj 1181 82 * 1000;
#X obj 298 486 vsl 15 128 -1 1 0 0 empty empty empty 0 -9 0 10 -262144
-1 -1 6350 1;
#X obj 374 288 s x;
#X obj 469 295 s y;
#X obj 121 475 r x;
#X obj 122 515 hsl 128 15 -1 1 0 0 empty empty empty -2 -8 0 10 -262144
-1 -1 6350 1;
#X obj 298 451 r y;
#X obj 537 523 vsl 15 128 -1 1 0 0 empty theta empty 0 -9 0 10 -262144
-1 -1 6350 1;
#X obj 502 522 vsl 15 128 -1 1 0 0 empty phi empty 0 -9 0 10 -262144
-1 -1 6350 1;
#X obj 574 526 vsl 15 128 -1 1 0 0 empty r empty 0 -9 0 10 -262144
-1 -1 5918 1;
#X obj 867 550 dac~ 1 2;
#X obj 187 303 dac~ 1 2;
#X obj 871 272 sound-scroller \$1;
#X connect 0 0 2 0;
#X connect 0 0 23 0;
#X connect 0 0 26 0;
#X connect 0 1 2 1;
#X connect 0 1 24 0;
#X connect 0 1 26 1;
#X connect 0 2 2 2;
#X connect 0 2 25 0;
#X connect 0 2 26 2;
#X connect 2 0 51 0;
#X connect 2 1 52 0;
#X connect 4 0 61 0;
#X connect 6 0 61 2;
#X connect 8 0 61 3;
#X connect 9 0 10 0;
#X connect 10 0 61 1;
#X connect 12 0 5 1;
#X connect 13 0 40 1;
#X connect 14 0 40 0;
#X connect 15 0 16 0;
#X connect 17 0 12 0;
#X connect 18 0 17 0;
#X connect 19 0 8 0;
#X connect 20 0 19 0;
#X connect 26 0 1 1;
#X connect 26 0 15 0;
#X connect 26 1 1 0;
#X connect 27 0 29 0;
#X connect 28 0 30 0;
#X connect 29 0 35 0;
#X connect 30 0 36 0;
#X connect 31 0 39 0;
#X connect 32 0 14 0;
#X connect 34 0 32 0;
#X connect 35 0 31 0;
#X connect 36 0 31 1;
#X connect 37 0 38 0;
#X connect 39 0 37 0;
#X connect 40 0 6 0;
#X connect 41 0 18 0;
#X connect 42 0 41 0;
#X connect 43 0 41 1;
#X connect 44 0 49 0;
#X connect 45 0 20 0;
#X connect 46 0 45 0;
#X connect 47 0 46 0;
#X connect 48 0 19 1;
#X connect 49 0 47 0;
#X connect 53 0 54 0;
#X connect 55 0 50 0;
#X connect 61 0 5 0;
