#N canvas 1920 58 1920 1022 10;
#X declare -path NM_Grainer_2;
#X declare -path stretcher;
#X declare -path string_controller;
#X obj 16 36 declare -path NM_Grainer_2;
#X obj 16 15 declare -path stretcher;
#X obj 17 58 declare -path string_controller;
#X obj 422 642 vsl 15 128 -1 1 0 0 empty empty empty 0 -9 0 10 -262144
-1 -1 0 1;
#X msg 166 521 \; pd dsp 1;
#X obj 166 498 loadbang;
#X obj 454 91 string_controller;
#X obj 454 186 s y;
#X obj 611 192 s x;
#X obj 768 189 s l;
#X obj 1581 105 vsl 15 128 -1 1 0 0 empty empty empty 0 -9 0 10 -262144
-1 -1 0 1;
#X obj 1628 111 vsl 15 128 -1 1 0 0 empty empty empty 0 -9 0 10 -262144
-1 -1 0 1;
#X obj 1492 101 vsl 15 128 -1 1 0 0 empty empty empty 0 -9 0 10 -262144
-1 -1 0 1;
#X obj 1492 237 * 1;
#X obj 594 527 r y;
#X obj 555 528 r l;
#X obj 633 526 r x;
#X obj 517 722 dac~ 1 2;
#N canvas 2501 429 450 300 modify 0;
#X obj 219 49 inlet;
#X obj 232 160 outlet;
#X obj 219 72 + 1;
#X connect 0 0 2 0;
#X connect 2 0 1 0;
#X restore 1106 754 pd modify;
#X floatatom 532 897 5 0 0 0 - - -, f 5;
#X obj 535 854 r l;
#X obj 1081 880 r x;
#X floatatom 1264 902 5 0 0 0 - - -, f 5;
#X obj 1267 859 r l;
#X obj 1813 885 r x;
#X obj 1252 1159 dac~ 1 2;
#X obj 1265 933 sound-scroller /home/anwaldt/Desktop/ADFI_2019-04-10/interchange/ADFI_2019-04-10/audiofiles/ADA-3.wav
1024 100 3000 10;
#X obj 533 928 sound-scroller /home/anwaldt/Desktop/ADFI_2019-04-10/interchange/ADFI_2019-04-10/audiofiles/ADA-19.wav
1024 100 3000 10;
#X obj 553 562 nm-grainer /home/anwaldt/Desktop/ADFI_2019-04-10/interchange/ADFI_2019-04-10/audiofiles/ADA-19.wav
;
#X obj 520 1154 dac~ 1 2;
#X connect 5 0 4 0;
#X connect 6 0 7 0;
#X connect 6 1 8 0;
#X connect 6 2 9 0;
#X connect 12 0 13 0;
#X connect 14 0 28 1;
#X connect 15 0 28 0;
#X connect 16 0 28 2;
#X connect 19 0 27 0;
#X connect 20 0 19 0;
#X connect 21 0 27 1;
#X connect 22 0 26 0;
#X connect 23 0 22 0;
#X connect 24 0 26 1;
#X connect 28 0 17 0;
#X connect 28 0 17 1;
