#N canvas 0 106 1920 974 10;
#X declare -path stretcher;
#X declare -path string_controller;
#X declare -path NM_Grainer_2;
#X obj 16 15 declare -path stretcher;
#X msg 16 123 \; pd dsp 1;
#X obj 16 100 loadbang;
#X obj 1581 105 vsl 15 128 -1 1 0 0 empty empty empty 0 -9 0 10 -262144
-1 -1 0 1;
#X obj 898 406 vsl 15 128 -1 1 0 0 empty empty empty 0 -9 0 10 -262144
-1 -1 6440 1;
#X obj 1492 101 vsl 15 128 -1 1 0 0 empty empty empty 0 -9 0 10 -262144
-1 -1 0 1;
#X obj 1492 237 * 1;
#X floatatom 1020 386 5 0 0 0 - - -, f 5;
#X obj 1020 408 s deflection;
#X obj 1020 346 / 2;
#X floatatom 1436 425 5 0 0 0 - - -, f 5;
#X floatatom 1386 520 5 0 0 0 - - -, f 5;
#X obj 1449 640 udpsend;
#X obj 1386 565 packOSC;
#X msg 1683 675 connect localhost 4002;
#X obj 1292 249 r x;
#X obj 1221 248 r y;
#X obj 1221 271 *;
#X obj 1292 272 *;
#X obj 1248 344 +;
#X floatatom 1254 418 5 0 0 0 - - -, f 5;
#X obj 1266 457 *;
#X obj 1342 381 r l;
#X obj 1242 631 packOSC;
#X obj 1248 367 sqrt;
#X obj 1612 428 atan;
#X obj 1436 470 * 180;
#X obj 1435 396 tanh;
#N canvas 463 310 450 300 active-synths 0;
#X obj 100 100 shore-stretch;
#X coords 0 -1 1 1 222 222 1 100 100;
#X restore 34 716 pd active-synths;
#X obj 1725 618 loadbang;
#X floatatom 1486 518 5 0 0 0 - - -, f 5;
#X obj 1488 563 packOSC;
#X obj 1467 493 + 180;
#N canvas 2501 429 450 300 modify 0;
#X obj 219 49 inlet;
#X obj 232 160 outlet;
#X obj 219 72 + 1;
#X connect 0 0 2 0;
#X connect 2 0 1 0;
#X restore 1106 754 pd modify;
#X floatatom 1632 518 5 0 0 0 - - -, f 5;
#X obj 1634 563 packOSC;
#X obj 1613 493 + 90;
#X floatatom 1761 518 5 0 0 0 - - -, f 5;
#X obj 1763 563 packOSC;
#X obj 1742 493 - 90;
#X obj 1344 422 * 0.1;
#X obj 1266 480 * 5;
#X obj 598 325 routeOSC /load;
#X obj 545 224 s y;
#X obj 400 216 s x;
#X obj 682 224 s l;
#X obj 570 73 udpreceive;
#X msg 570 50 port 4545;
#X obj 570 96 unpackOSC;
#X obj 400 153 routeOSC /x;
#X floatatom 400 176 5 0 0 0 - - -, f 5;
#X floatatom 549 172 5 0 0 0 - - -, f 5;
#X obj 549 149 routeOSC /y;
#X floatatom 678 179 5 0 0 0 - - -, f 5;
#X obj 678 156 routeOSC /l;
#X obj 571 16 loadbang;
#X obj 598 348 s load;
#X obj 17 58 declare -path string_controller;
#N canvas 0 106 1920 974 loaders 0;
#X msg 227 408 \; pd-active-synths obj 100 100 shore-stretch;
#X msg 339 311 \; pd-active-synths clear;
#X obj 249 314 delay 100;
#X obj 306 267 select 1;
#X obj 308 236 r load;
#X obj 215 353 delay 100;
#X msg 865 400 \; pd-active-synths clear;
#X obj 775 403 delay 100;
#X obj 834 325 r load;
#X obj 832 356 select 2;
#X msg 897 485 \; pd-active-synths obj 100 100 trolley;
#X msg 905 582 \; pd-active-synths loadbang;
#X msg 191 548 \; pd-active-synths loadbang;
#X msg 1404 373 \; pd-active-synths clear;
#X obj 1314 376 delay 100;
#X obj 1373 298 r load;
#X msg 1444 555 \; pd-active-synths loadbang;
#X msg 1436 458 \; pd-active-synths obj 100 100 bells-1-stretch;
#X obj 1371 329 select 3;
#X msg 1309 699 \; pd-active-synths clear;
#X obj 1219 702 delay 100;
#X obj 1278 624 r load;
#X msg 1349 881 \; pd-active-synths loadbang;
#X obj 1276 655 select 4;
#X msg 1341 784 \; pd-active-synths obj 100 100 dogs;
#X msg 697 696 \; pd-active-synths clear;
#X obj 607 699 delay 100;
#X obj 666 621 r load;
#X msg 737 878 \; pd-active-synths loadbang;
#X obj 664 652 select 5;
#X msg 729 781 \; pd-active-synths obj 100 100 glass-stretch;
#X msg 224 710 \; pd-active-synths clear;
#X obj 134 713 delay 100;
#X obj 193 635 r load;
#X msg 264 892 \; pd-active-synths loadbang;
#X obj 191 666 select 6;
#X msg 256 795 \; pd-active-synths obj 100 100 kaputt;
#X msg 980 94 \; pd-active-synths clear;
#X obj 949 19 r load;
#X obj 947 50 select 0;
#X connect 2 0 0 0;
#X connect 2 0 5 0;
#X connect 3 0 1 0;
#X connect 3 0 2 0;
#X connect 4 0 3 0;
#X connect 5 0 12 0;
#X connect 7 0 10 0;
#X connect 7 0 11 0;
#X connect 8 0 9 0;
#X connect 9 0 6 0;
#X connect 9 0 7 0;
#X connect 14 0 17 0;
#X connect 14 0 16 0;
#X connect 15 0 18 0;
#X connect 18 0 13 0;
#X connect 18 0 14 0;
#X connect 20 0 24 0;
#X connect 20 0 22 0;
#X connect 21 0 23 0;
#X connect 23 0 19 0;
#X connect 23 0 20 0;
#X connect 26 0 30 0;
#X connect 26 0 28 0;
#X connect 27 0 29 0;
#X connect 29 0 25 0;
#X connect 29 0 26 0;
#X connect 32 0 36 0;
#X connect 32 0 34 0;
#X connect 33 0 35 0;
#X connect 35 0 31 0;
#X connect 35 0 32 0;
#X connect 38 0 39 0;
#X connect 39 0 37 0;
#X coords 0 -1 1 1 111 111 1 100 100;
#X restore 627 605 pd loaders;
#X obj 16 36 declare -path NM_Grainer_2;
#X msg 1040 521 /track/9/dist \$1;
#X msg 1133 549 /track/10/dist \$1;
#X msg 1262 541 /track/11/dist \$1;
#X msg 1226 569 /track/12/dist \$1;
#X msg 1386 542 /track/9/azim \$1;
#X msg 1488 540 /track/10/azim \$1;
#X msg 1634 540 /track/11/azim \$1;
#X msg 1763 540 /track/12/azim \$1;
#X msg 28 517 \; pd-active-synths clear;
#X obj 1479 358 cartopol;
#X obj 1410 320 r y;
#X obj 1465 319 r x;
#X obj 1436 447 / 3.14;
#X obj 988 161 r x;
#X obj 1069 160 r y;
#X obj 1018 240 +;
#X obj 1069 183 *;
#X obj 988 184 *;
#X obj 1020 323 + 0;
#X connect 2 0 1 0;
#X connect 5 0 6 0;
#X connect 7 0 8 0;
#X connect 7 0 4 0;
#X connect 9 0 7 0;
#X connect 10 0 72 0;
#X connect 11 0 64 0;
#X connect 13 0 12 0;
#X connect 14 0 12 0;
#X connect 15 0 18 0;
#X connect 15 0 18 1;
#X connect 16 0 17 0;
#X connect 16 0 17 1;
#X connect 17 0 19 0;
#X connect 18 0 19 1;
#X connect 19 0 24 0;
#X connect 20 0 21 0;
#X connect 21 0 41 0;
#X connect 22 0 40 0;
#X connect 22 0 21 1;
#X connect 23 0 12 0;
#X connect 24 0 20 0;
#X connect 26 0 11 0;
#X connect 26 0 32 0;
#X connect 26 0 36 0;
#X connect 26 0 39 0;
#X connect 27 0 10 0;
#X connect 29 0 14 0;
#X connect 30 0 65 0;
#X connect 31 0 12 0;
#X connect 32 0 30 0;
#X connect 34 0 66 0;
#X connect 35 0 12 0;
#X connect 36 0 34 0;
#X connect 37 0 67 0;
#X connect 38 0 12 0;
#X connect 39 0 37 0;
#X connect 41 0 60 0;
#X connect 41 0 61 0;
#X connect 41 0 63 0;
#X connect 41 0 62 0;
#X connect 42 0 56 0;
#X connect 46 0 48 0;
#X connect 47 0 46 0;
#X connect 48 0 49 0;
#X connect 48 0 52 0;
#X connect 48 0 54 0;
#X connect 48 0 42 0;
#X connect 49 0 50 0;
#X connect 50 0 44 0;
#X connect 51 0 43 0;
#X connect 52 0 51 0;
#X connect 53 0 45 0;
#X connect 54 0 53 0;
#X connect 55 0 47 0;
#X connect 60 0 23 0;
#X connect 61 0 23 0;
#X connect 62 0 23 0;
#X connect 63 0 23 0;
#X connect 64 0 13 0;
#X connect 65 0 31 0;
#X connect 66 0 35 0;
#X connect 67 0 38 0;
#X connect 69 1 10 0;
#X connect 70 0 69 0;
#X connect 71 0 69 1;
#X connect 72 0 26 0;
#X connect 73 0 77 0;
#X connect 73 0 77 1;
#X connect 74 0 76 0;
#X connect 74 0 76 1;
#X connect 75 0 78 0;
#X connect 76 0 75 1;
#X connect 77 0 75 0;
#X connect 78 0 9 0;
