#N canvas 563 363 907 636 10;
#X obj 416 373 *~;
#X obj 473 365 *~;
#X obj 468 487 dac~ 1 2 3 4;
#X obj 588 384 *~;
#X obj 645 376 *~;
#X obj 472 128 r deflection;
#X floatatom 357 211 5 0 0 0 - - -, f 5;
#X msg 472 180 \$1 50;
#X obj 441 316 *~ 2;
#X floatatom 397 168 5 0 0 0 - - -, f 5;
#X obj 469 211 line~;
#X obj 130 223 phasor~ 45;
#X obj 150 71 r l;
#X floatatom 147 164 5 0 0 0 - - -, f 5;
#X obj 147 186 * 100;
#X msg 108 100 1;
#X obj 598 219 phasor~ 45;
#X obj 618 67 r l;
#X floatatom 615 160 5 0 0 0 - - -, f 5;
#X msg 576 96 1;
#X obj 615 182 * 111;
#X obj 745 227 phasor~ 45;
#X obj 765 75 r l;
#X floatatom 762 168 5 0 0 0 - - -, f 5;
#X msg 723 104 1;
#X obj 762 190 * 91;
#X obj 613 327 *~ 2;
#X obj 844 296 phasor~ 45;
#X obj 864 144 r l;
#X floatatom 861 237 5 0 0 0 - - -, f 5;
#X msg 822 173 1;
#X obj 861 259 * 122;
#X obj 147 141 +;
#X obj 615 137 +;
#X obj 762 145 +;
#X obj 861 214 +;
#X connect 0 0 2 0;
#X connect 1 0 2 1;
#X connect 3 0 2 2;
#X connect 4 0 2 3;
#X connect 5 0 7 0;
#X connect 5 0 9 0;
#X connect 7 0 10 0;
#X connect 8 0 0 1;
#X connect 8 0 1 1;
#X connect 10 0 8 0;
#X connect 10 0 26 0;
#X connect 11 0 0 0;
#X connect 12 0 15 0;
#X connect 12 0 32 1;
#X connect 13 0 14 0;
#X connect 14 0 11 0;
#X connect 15 0 32 0;
#X connect 16 0 1 0;
#X connect 17 0 19 0;
#X connect 17 0 33 1;
#X connect 18 0 20 0;
#X connect 19 0 33 0;
#X connect 20 0 16 0;
#X connect 21 0 3 0;
#X connect 22 0 24 0;
#X connect 22 0 34 1;
#X connect 23 0 25 0;
#X connect 24 0 34 0;
#X connect 25 0 21 0;
#X connect 26 0 3 1;
#X connect 26 0 4 1;
#X connect 27 0 4 0;
#X connect 28 0 30 0;
#X connect 28 0 35 1;
#X connect 29 0 31 0;
#X connect 30 0 35 0;
#X connect 31 0 27 0;
#X connect 32 0 13 0;
#X connect 33 0 18 0;
#X connect 34 0 23 0;
#X connect 35 0 29 0;
