#N canvas 1 106 1920 974 10;
#X declare -path stretcher;
#X floatatom 62 260 5 0 0 0 - - -, f 5;
#X obj 62 214 r l;
#X obj 610 180 r x;
#X floatatom 860 111 5 0 0 0 - - -, f 5;
#X obj 860 65 r l;
#X obj 1409 94 r x;
#X floatatom 899 479 5 0 0 0 - - -, f 5;
#X obj 899 433 r l;
#X obj 1448 462 r x;
#X floatatom 1019 756 5 0 0 0 - - -, f 5;
#X obj 1019 710 r l;
#X obj 1568 739 r x;
#X obj 16 15 declare -path stretcher;
#X obj 63 290 sound-scroller ../../WAV/shore-1.wav 4096 20 10000 0
;
#X obj 861 141 sound-scroller ../../WAV/shore-2.wav 4096 20 10000 0
;
#X obj 901 508 sound-scroller ../../WAV/shore-3.wav 4096 20 10000 0
;
#X obj 1020 786 sound-scroller ../../WAV/shore-4.wav 4096 20 10000
0;
#X connect 0 0 13 0;
#X connect 1 0 0 0;
#X connect 2 0 13 1;
#X connect 3 0 14 0;
#X connect 4 0 3 0;
#X connect 5 0 14 1;
#X connect 6 0 15 0;
#X connect 7 0 6 0;
#X connect 8 0 15 1;
#X connect 9 0 16 0;
#X connect 10 0 9 0;
#X connect 11 0 16 1;
