#N canvas 548 339 1819 548 10;
#X obj 430 540 *~;
#X obj 487 532 *~;
#X obj 439 582 dac~ 1 2 3 4;
#X obj 602 551 *~;
#X obj 659 543 *~;
#X obj 486 295 r deflection;
#X floatatom 371 378 5 0 0 0 - - -, f 5;
#X obj 627 494 * 2;
#X msg 486 347 \$1 50;
#X obj 455 483 *~ 2;
#X floatatom 411 335 5 0 0 0 - - -, f 5;
#X obj 483 378 line~;
#X obj 144 390 phasor~ 45;
#X obj 164 238 r l;
#X floatatom 161 331 5 0 0 0 - - -, f 5;
#X obj 161 353 * 100;
#X obj 161 308 -;
#X msg 122 267 1;
#X obj 658 304 vsl 15 128 -1 1 0 0 empty empty empty 0 -9 0 10 -262144
-1 -1 8338 1;
#X floatatom 780 284 5 0 0 0 - - -, f 5;
#X obj 780 306 s deflection;
#X obj 780 244 / 2;
#X obj 748 59 r x;
#X obj 829 58 r y;
#X obj 778 138 +;
#X obj 829 81 *;
#X obj 748 82 *;
#X obj 780 221 + 0;
#X obj 1329 514 *~;
#X obj 1386 506 *~;
#X obj 1338 556 dac~ 1 2 3 4;
#X obj 1501 525 *~;
#X obj 1558 517 *~;
#X obj 1526 468 * 2;
#X msg 1385 321 \$1 50;
#X obj 1354 457 *~ 2;
#X floatatom 1310 309 5 0 0 0 - - -, f 5;
#X obj 1382 352 line~;
#X obj 1043 364 phasor~ 45;
#X floatatom 1060 305 5 0 0 0 - - -, f 5;
#X obj 1060 327 * 100;
#X obj 1060 282 -;
#X msg 1021 241 1;
#X obj 1063 212 r l2;
#X obj 1510 309 vsl 15 128 -1 1 0 0 empty empty empty 0 -9 0 10 -262144
-1 -1 6350 1;
#X floatatom 1632 289 5 0 0 0 - - -, f 5;
#X obj 1632 249 / 2;
#X obj 1630 143 +;
#X obj 1681 86 *;
#X obj 1600 87 *;
#X obj 1632 226 + 0;
#X obj 1632 311 s deflection2;
#X obj 1600 64 r x2;
#X obj 1681 63 r y2;
#X obj 1379 266 r deflection2;
#X connect 0 0 2 0;
#X connect 1 0 2 1;
#X connect 3 0 2 2;
#X connect 4 0 2 3;
#X connect 5 0 8 0;
#X connect 5 0 10 0;
#X connect 7 0 3 1;
#X connect 7 0 4 1;
#X connect 8 0 11 0;
#X connect 9 0 0 1;
#X connect 9 0 1 1;
#X connect 11 0 9 0;
#X connect 12 0 0 0;
#X connect 13 0 17 0;
#X connect 13 0 16 1;
#X connect 14 0 15 0;
#X connect 15 0 12 0;
#X connect 16 0 14 0;
#X connect 17 0 16 0;
#X connect 19 0 20 0;
#X connect 19 0 18 0;
#X connect 21 0 19 0;
#X connect 22 0 26 0;
#X connect 22 0 26 1;
#X connect 23 0 25 0;
#X connect 23 0 25 1;
#X connect 24 0 27 0;
#X connect 25 0 24 1;
#X connect 26 0 24 0;
#X connect 27 0 21 0;
#X connect 28 0 30 0;
#X connect 29 0 30 1;
#X connect 31 0 30 2;
#X connect 32 0 30 3;
#X connect 33 0 31 1;
#X connect 33 0 32 1;
#X connect 34 0 37 0;
#X connect 35 0 28 1;
#X connect 35 0 29 1;
#X connect 37 0 35 0;
#X connect 38 0 28 0;
#X connect 39 0 40 0;
#X connect 40 0 38 0;
#X connect 41 0 39 0;
#X connect 42 0 41 0;
#X connect 43 0 42 0;
#X connect 43 0 41 1;
#X connect 45 0 44 0;
#X connect 45 0 51 0;
#X connect 46 0 45 0;
#X connect 47 0 50 0;
#X connect 48 0 47 1;
#X connect 49 0 47 0;
#X connect 50 0 46 0;
#X connect 52 0 49 0;
#X connect 52 0 49 1;
#X connect 53 0 48 0;
#X connect 53 0 48 1;
#X connect 54 0 34 0;
#X connect 54 0 36 0;
