#N canvas 2358 510 756 421 10;
#X obj 95 179 mrpeach/slipdec 65536;
#X obj 95 47 mrpeach/slipenc 65536;
#X obj 359 20 loadbang;
#X obj 95 22 inlet;
#X obj 261 46 inlet;
#X obj 95 135 comport;
#X obj 134 157 print errors;
#X msg 359 83 baud 9600;
#X obj 95 206 unpackOSC;
#X obj 43 240 routeOSC /x;
#X floatatom 43 263 5 0 0 0 - - -, f 5;
#X floatatom 144 265 5 0 0 0 - - -, f 5;
#X obj 144 242 routeOSC /y;
#X floatatom 241 265 5 0 0 0 - - -, f 5;
#X obj 241 242 routeOSC /z;
#X obj 43 286 outlet;
#X obj 144 287 outlet;
#X obj 241 287 outlet;
#X msg 318 46 devicename /dev/ttyACM1 \, pollintervall 1;
#X connect 0 0 8 0;
#X connect 1 0 5 0;
#X connect 2 0 18 0;
#X connect 2 0 7 0;
#X connect 3 0 1 0;
#X connect 4 0 5 0;
#X connect 5 0 0 0;
#X connect 5 1 6 0;
#X connect 7 0 5 0;
#X connect 8 0 9 0;
#X connect 8 0 12 0;
#X connect 8 0 14 0;
#X connect 9 0 10 0;
#X connect 10 0 15 0;
#X connect 11 0 16 0;
#X connect 12 0 11 0;
#X connect 13 0 17 0;
#X connect 14 0 13 0;
#X connect 18 0 5 0;
