#N canvas 1586 281 482 677 10;
#X obj 226 44 inlet;
#X obj 141 43 inlet, f 6;
#X obj 58 43 inlet;
#X obj 58 66 s a1;
#X obj 141 66 s a2;
#X obj 226 67 s a3;
#X obj 145 222 f;
#X obj 122 263 f;
#X obj 147 305 -;
#X obj 147 328 abs;
#X floatatom 148 375 5 0 0 0 - - -, f 5;
#X obj 147 350 * 10;
#X obj 197 167 t f b b;
#X obj 197 142 r a2, f 5;
#X obj 174 270 f;
#X obj 9 217 f;
#X obj -14 258 f;
#X obj 11 300 -;
#X obj 11 323 abs;
#X floatatom 12 370 5 0 0 0 - - -, f 5;
#X obj 11 345 * 10;
#X obj 61 162 t f b b;
#X obj 38 265 f;
#X obj 61 137 r a1, f 5;
#X obj 99 424 +;
#X obj 293 225 f;
#X obj 270 266 f;
#X obj 295 308 -;
#X obj 295 331 abs;
#X floatatom 296 378 5 0 0 0 - - -, f 5;
#X obj 295 353 * 10;
#X obj 345 170 t f b b;
#X obj 322 273 f;
#X obj 345 145 r a3, f 5;
#X floatatom 99 489 5 0 0 0 - - -, f 5;
#X obj 99 447 +;
#X obj 99 511 outlet;
#X obj 293 492 outlet;
#X connect 0 0 5 0;
#X connect 0 0 37 0;
#X connect 1 0 4 0;
#X connect 2 0 3 0;
#X connect 6 0 7 1;
#X connect 7 0 8 0;
#X connect 8 0 9 0;
#X connect 9 0 11 0;
#X connect 10 0 24 1;
#X connect 11 0 10 0;
#X connect 12 0 6 1;
#X connect 12 0 14 1;
#X connect 12 1 7 0;
#X connect 12 1 14 0;
#X connect 12 2 6 0;
#X connect 13 0 12 0;
#X connect 14 0 8 1;
#X connect 15 0 16 1;
#X connect 16 0 17 0;
#X connect 17 0 18 0;
#X connect 18 0 20 0;
#X connect 19 0 24 0;
#X connect 20 0 19 0;
#X connect 21 0 15 1;
#X connect 21 0 22 1;
#X connect 21 1 16 0;
#X connect 21 1 22 0;
#X connect 21 2 15 0;
#X connect 22 0 17 1;
#X connect 23 0 21 0;
#X connect 24 0 35 0;
#X connect 25 0 26 1;
#X connect 26 0 27 0;
#X connect 27 0 28 0;
#X connect 28 0 30 0;
#X connect 29 0 35 1;
#X connect 30 0 29 0;
#X connect 31 0 25 1;
#X connect 31 0 32 1;
#X connect 31 1 26 0;
#X connect 31 1 32 0;
#X connect 31 2 25 0;
#X connect 32 0 27 1;
#X connect 33 0 31 0;
#X connect 34 0 36 0;
#X connect 35 0 34 0;
