#N canvas 793 380 1304 660 10;
#X obj 170 -3 mrpeach/slipdec 65536;
#X obj 170 -135 mrpeach/slipenc 65536;
#X obj 434 -162 loadbang;
#X obj 170 -160 inlet;
#X obj 336 -136 inlet;
#X obj 170 -47 comport;
#X obj 209 -25 print errors;
#X msg 434 -99 baud 9600;
#X obj 170 24 unpackOSC;
#X obj 118 58 routeOSC /x;
#X floatatom 118 126 5 0 0 0 - - -, f 5;
#X floatatom 219 127 5 0 0 0 - - -, f 5;
#X obj 219 60 routeOSC /y;
#X floatatom 316 129 5 0 0 0 - - -, f 5;
#X obj 316 60 routeOSC /z;
#X obj 118 149 outlet;
#X obj 219 149 outlet;
#X obj 316 152 outlet;
#X msg 393 -136 devicename /dev/ttyACM0 \, pollintervall 1;
#X obj 397 219;
#X obj 316 83 * 3;
#X obj 548 133;
#X connect 0 0 8 0;
#X connect 1 0 5 0;
#X connect 2 0 18 0;
#X connect 2 0 7 0;
#X connect 3 0 1 0;
#X connect 4 0 5 0;
#X connect 5 0 0 0;
#X connect 5 1 6 0;
#X connect 7 0 5 0;
#X connect 8 0 9 0;
#X connect 8 0 12 0;
#X connect 8 0 14 0;
#X connect 9 0 10 0;
#X connect 10 0 15 0;
#X connect 11 0 16 0;
#X connect 12 0 11 0;
#X connect 13 0 17 0;
#X connect 14 0 20 0;
#X connect 18 0 5 0;
#X connect 20 0 13 0;
#X coords 0 -1 1 1 321 77 1 100 100;
