#N canvas 0 106 1920 974 10;
#X declare -path NM_Grainer_2;
#X obj 301 90 r y;
#X obj 202 97 r l;
#X obj 441 99 r x;
#X obj 246 331 dac~ 1 2;
#X obj 16 36 declare -path NM_Grainer_2;
#X obj 775 144 r y;
#X obj 676 151 r l;
#X obj 915 153 r x;
#X obj 727 372 dac~ 3 4;
#X obj 637 222 nm-grainer ../../WAV/trolley.wav 0.1 0.01 -0.7;
#X obj 163 168 nm-grainer ../../WAV/trolley.wav 0.1 0.05 0.7;
#X connect 0 0 10 1;
#X connect 1 0 10 0;
#X connect 2 0 10 2;
#X connect 5 0 9 1;
#X connect 6 0 9 0;
#X connect 7 0 9 2;
#X connect 9 0 8 0;
#X connect 9 1 8 1;
#X connect 10 0 3 0;
#X connect 10 1 3 1;
