#N canvas 782 98 814 988 12;
#N canvas 0 0 450 300 graph1 0;
#X array array1 62079 float 2;
#X coords 0 1 62079 -1 200 140 1;
#X restore 446 237 graph;
#X obj 47 100 openpanel;
#X obj 47 76 bng 15 250 50 0 empty empty empty 0 -6 0 8 -262144 -1
-1;
#X obj 47 152 soundfiler;
#X msg 47 126 read -resize \$1 array1;
#X obj 62 190 expr 44100 / $f1;
#X floatatom 47 350 5 0 0 0 - - -;
#X text 72 73 Klangdatei laden;
#X obj 47 445 phasor~;
#X obj 447 385 hsl 200 15 0 1 0 0 empty empty empty -2 -6 0 8 -262144
-1 -1 9404 1;
#X text 445 408 0;
#X text 645 405 1;
#X obj 46 654 tabread4~ array1;
#X obj 92 735 line~;
#X msg 92 709 \$1 20;
#X floatatom 92 682 5 0 0 0 - - -;
#X text 148 681 Lautstaerke;
#X obj 47 761 *~;
#X obj 48 793 hip~ 5;
#X obj 48 823 dac~;
#X text 115 790 moeglichen DC-Offset ausfiltern;
#X text 436 443 slider zeugt Abspielposition an;
#X obj 47 418 *;
#X obj 143 325 hsl 128 15 -2 2 0 0 empty empty empty -2 -6 0 8 -262144
-1 -1 9900 1;
#X text 130 342 -2;
#X text 268 343 2;
#X obj 444 203 hsl 200 15 0 1 0 0 empty empty empty -2 -6 0 8 -262144
-1 -1 9700 1;
#X obj 443 169 hsl 200 15 0 1 0 0 empty empty empty -2 -6 0 8 -262144
-1 -1 6000 1;
#X obj 45 527 +~;
#X obj 198 439 -;
#X floatatom 198 405 5 0 0 0 - - -;
#X obj 268 364 t f b;
#X obj 46 484 *~;
#X obj 15 262 expr 1 / $f1;
#X obj 15 313 *;
#X obj 74 570 unsig~ 20;
#X text 439 143 0;
#X text 638 143 1;
#X text 333 169 linke Grenze;
#X text 657 195 rechte Grenze;
#X text 243 436 Differenz \, immer;
#X text 243 457 berechnet;
#X text 40 18 3.4.2.3. beliebige Position aus einem Sample auspicken
;
#X text 535 883 Johannes Kreidler;
#X text 526 909 www.pd-tutorial.com;
#X obj 84 318 t b f;
#X text 136 292 Abspielgeschwindigkeit;
#X obj 46 615 *~;
#X connect 1 0 4 0;
#X connect 2 0 1 0;
#X connect 3 0 5 0;
#X connect 3 0 47 1;
#X connect 4 0 3 0;
#X connect 5 0 34 1;
#X connect 6 0 22 0;
#X connect 8 0 32 0;
#X connect 12 0 17 0;
#X connect 13 0 17 1;
#X connect 14 0 13 0;
#X connect 15 0 14 0;
#X connect 17 0 18 0;
#X connect 18 0 19 0;
#X connect 18 0 19 1;
#X connect 22 0 8 0;
#X connect 23 0 45 0;
#X connect 26 0 30 0;
#X connect 27 0 31 0;
#X connect 28 0 35 0;
#X connect 28 0 47 0;
#X connect 29 0 33 0;
#X connect 29 0 32 1;
#X connect 30 0 29 0;
#X connect 31 0 29 1;
#X connect 31 0 28 1;
#X connect 31 1 30 0;
#X connect 32 0 28 0;
#X connect 33 0 34 0;
#X connect 34 0 6 0;
#X connect 35 0 9 0;
#X connect 45 0 6 0;
#X connect 45 1 22 1;
#X connect 47 0 12 0;
