#N canvas 544 279 865 564 10;
#X declare -lib mrpeach;
#X obj 42 98 import mrpeach;
#X obj 422 91 udpreceive 9001;
#X obj 422 122 unpackOSC;
#X obj 285 173 route /ori;
#X obj 285 239 unpack f f f;
#X obj 240 295 / 360;
#X obj 316 338 / 360;
#X obj 370 336 / 360;
#X obj 184 414 outlet;
#X obj 290 414 outlet;
#X obj 389 412 outlet;
#X text 38 25 FOR andOSC;
#X obj 559 181 route /touch;
#X obj 556 241 unpack f f;
#X text 168 428 orientation x;
#X text 269 427 orientation y;
#X text 369 429 orientation z;
#X obj 613 348 / 300;
#X obj 556 351 / 240;
#X obj 525 418 outlet;
#X obj 608 416 outlet;
#X obj 716 181 route /acc;
#X obj 708 215 change;
#X obj 766 215 value;
#X obj 733 247 vector;
#X obj 316 306 + 0;
#X obj 370 305 + 0;
#X connect 1 0 2 0;
#X connect 2 0 3 0;
#X connect 2 0 12 0;
#X connect 2 0 21 0;
#X connect 3 0 4 0;
#X connect 4 0 5 0;
#X connect 4 1 25 0;
#X connect 4 2 26 0;
#X connect 5 0 8 0;
#X connect 6 0 9 0;
#X connect 7 0 10 0;
#X connect 12 0 13 0;
#X connect 13 0 18 0;
#X connect 13 1 17 0;
#X connect 17 0 20 0;
#X connect 18 0 19 0;
#X connect 25 0 6 0;
#X connect 26 0 7 0;
