#N canvas 637 79 396 817 10;
#X floatatom 82 397 0 0 0 0 - - -;
#X floatatom 127 427 0 0 0 0 - - -;
#X obj 82 364 moses 64;
#X obj 127 397 - 127;
#X obj 82 463 *;
#X obj 127 464 *;
#X msg 199 419 5;
#X obj 110 553 outlet;
#X floatatom 199 318 5 0 0 0 - - -;
#X obj 199 201 ctlin;
#X obj 199 283 *;
#X obj 302 126 inlet;
#X obj 263 228 route 1;
#X msg 219 257 1;
#X msg 260 256 0;
#X obj 104 194 loadbang;
#X msg 142 256 64;
#X obj 110 521 / 1000;
#X connect 0 0 4 0;
#X connect 1 0 5 0;
#X connect 2 0 0 0;
#X connect 2 1 3 0;
#X connect 3 0 1 0;
#X connect 4 0 17 0;
#X connect 5 0 17 0;
#X connect 6 0 5 1;
#X connect 6 0 4 1;
#X connect 8 0 6 0;
#X connect 8 0 2 0;
#X connect 9 0 10 0;
#X connect 9 1 12 0;
#X connect 10 0 8 0;
#X connect 11 0 12 1;
#X connect 12 0 13 0;
#X connect 12 1 14 0;
#X connect 13 0 10 1;
#X connect 14 0 10 1;
#X connect 15 0 16 0;
#X connect 16 0 8 0;
#X connect 17 0 7 0;
