#N canvas 145 79 1431 734 10;
#X floatatom 1031 418 5 0 0 0 - - -;
#X text 1028 395 integration-time;
#X floatatom 903 507 5 0 0 0 - - -;
#X obj 954 313 1;
#X obj 954 279 / 127;
#X obj 954 376 + 0;
#X obj 954 409 * 22000;
#X msg 1012 310 1;
#X obj 289 206 inlet~;
#X obj 1053 182 inlet;
#X obj 369 673 outlet~;
#X obj 1340 124 loadbang;
#X floatatom 551 387 5 0 0 0 - - -;
#X text 548 364 integration-time;
#X floatatom 474 434 5 0 0 0 - - -;
#X obj 474 282 1;
#X obj 474 248 / 127;
#X obj 474 345 + 0;
#X obj 474 378 * 22000;
#X obj 573 151 inlet;
#X obj 860 93 loadbang;
#X msg 532 279 0.05;
#X msg 1048 355 100;
#X obj 437 574 lp4_cheb~;
#X msg 568 324 100;
#X obj 446 528 hp2_cheb~;
#X obj 920 462 max 10;
#X obj 474 313 pow 4;
#X obj 954 344 pow 4;
#X obj 453 403 max 50;
#X connect 0 0 23 2;
#X connect 2 0 23 1;
#X connect 3 0 28 0;
#X connect 4 0 3 0;
#X connect 5 0 6 0;
#X connect 6 0 26 0;
#X connect 7 0 28 0;
#X connect 8 0 25 0;
#X connect 9 0 4 0;
#X connect 11 0 7 0;
#X connect 11 0 22 0;
#X connect 12 0 25 2;
#X connect 14 0 25 1;
#X connect 15 0 27 0;
#X connect 16 0 15 0;
#X connect 17 0 18 0;
#X connect 18 0 29 0;
#X connect 19 0 16 0;
#X connect 20 0 21 0;
#X connect 20 0 24 0;
#X connect 21 0 27 0;
#X connect 22 0 0 0;
#X connect 23 0 10 0;
#X connect 24 0 12 0;
#X connect 25 0 23 0;
#X connect 26 0 2 0;
#X connect 27 0 17 0;
#X connect 28 0 5 0;
#X connect 29 0 14 0;
