#N canvas 2 90 1585 804 10;
#X obj 153 109 inlet~;
#X obj 225 115 inlet~;
#X obj 297 112 inlet~;
#X obj 369 104 inlet~;
#X obj 507 22 ctlin 23;
#X floatatom 324 226 5 0 0 0 - - -, f 5;
#X obj 502 118 1;
#X obj 502 84 / 127;
#X obj 502 181 + 0;
#X obj 502 149 pow 1;
#X obj 190 354 *~;
#X obj 233 341 *~;
#X obj 282 351 *~;
#X obj 357 343 *~;
#X obj 241 429 dac~ 1 2 3 4;
#X obj 565 224 loadbang;
#X msg 561 257 2;
#X obj 502 214 * 5;
#X obj 645 147 inlet;
#X obj 505 276 smooth;
#X connect 0 0 10 0;
#X connect 1 0 11 0;
#X connect 2 0 12 0;
#X connect 3 0 13 0;
#X connect 4 0 7 0;
#X connect 5 0 10 1;
#X connect 5 0 11 1;
#X connect 5 0 12 1;
#X connect 5 0 13 1;
#X connect 6 0 9 0;
#X connect 7 0 6 0;
#X connect 8 0 17 0;
#X connect 9 0 8 0;
#X connect 10 0 14 0;
#X connect 11 0 14 1;
#X connect 12 0 14 2;
#X connect 13 0 14 3;
#X connect 15 0 16 0;
#X connect 17 0 5 0;
#X connect 18 0 17 0;
