#N canvas 1 147 1600 807 10;
#X obj 142 488 volume-module;
#X msg 343 162 10;
#X floatatom 112 187 5 0 0 0 - - -, f 5;
#X text 170 21 pitch;
#X text 89 22 location;
#X floatatom 190 185 5 0 0 0 - - -, f 5;
#X obj 391 91 loadbang;
#X obj 9 46 inlet;
#X obj 139 540 outlet~;
#X obj 217 518 outlet;
#X obj 100 43 inlet;
#X obj 172 46 inlet;
#X obj 336 60 inlet;
#X obj 268 46 inlet;
#X obj 361 574 outlet;
#X msg 376 164 2048;
#X obj 142 278 sound-scroller \$1;
#X text 4 23 filename;
#X text 335 37 vol;
#X floatatom 217 442 5 0 0 0 - - -, f 5;
#X floatatom 268 69 5 0 0 0 - - -, f 5;
#X text 265 21 speed;
#X obj 111 165 * 10000;
#X obj 184 149 * 1000;
#X obj 336 83 * 1000;
#X floatatom 352 231 5 0 0 0 - - -, f 5;
#X floatatom 128 134 5 0 0 0 - - -, f 5;
#X floatatom 197 123 5 0 0 0 - - -, f 5;
#X connect 0 0 8 0;
#X connect 2 0 16 2;
#X connect 5 0 16 4;
#X connect 6 0 1 0;
#X connect 6 0 15 0;
#X connect 7 0 16 0;
#X connect 10 0 22 0;
#X connect 11 0 23 0;
#X connect 12 0 24 0;
#X connect 13 0 20 0;
#X connect 15 0 16 1;
#X connect 16 0 0 0;
#X connect 16 1 14 0;
#X connect 19 0 0 1;
#X connect 20 0 16 3;
#X connect 22 0 2 0;
#X connect 23 0 5 0;
#X connect 24 0 19 0;
#X connect 26 0 22 1;
#X connect 27 0 23 1;
#X coords 0 -1 1 1 222 111 1 100 100;
