#N canvas 203 276 1585 804 10;
#X obj 194 -255 nbx 3 30 -1e+37 1e+37 0 0 empty empty empty 0 -8 0
30 -262144 -1 -1 0 256;
#X obj 193 -212 nbx 3 30 -1e+37 1e+37 0 0 empty empty empty 0 -8 0
30 -262144 -1 -1 0 256;
#X obj 731 -50 vsl 40 128 0 127 0 0 empty empty empty 0 -9 0 20 -258113
-257985 -1 4000 1;
#X obj 446 -266 vsl 15 128 0 2 0 0 empty vol-1-out empty 0 -9 0 10
-258113 -257985 -1 1100 1;
#X obj 499 -253 nbx 5 30 -1e+37 1e+37 0 0 empty empty empty 0 -8 0
30 -262144 -1 -1 0 256;
#X text 524 -274 SPEED;
#X text 217 -293 TIME;
#X obj 80 -39 bng 30 250 50 0 load empty empty 17 7 0 30 -262144 -1
-1;
#X obj 413 -614 vsl 15 128 0 127 0 1 empty empty empty 0 -9 0 10 -262144
-1 -1 5000 1;
#X obj 460 -612 vsl 15 128 0 127 0 1 empty empty empty 0 -9 0 10 -262144
-1 -1 12700 1;
#X obj 540 -641 vsl 15 128 0 127 0 1 empty empty empty 0 -9 0 10 -262144
-1 -1 4865 1;
#X obj 580 -624 vsl 15 128 0 127 0 1 empty empty empty 0 -9 0 10 -262144
-1 -1 4550 1;
#X obj 1131 -444 vsl 15 128 0 127 0 1 empty empty empty 0 -9 0 10 -262144
-1 -1 1113 1;
#X text 612 -614 volume;
#X text 572 -652 lowpass;
#X text 519 -688 highpass;
#X text 401 -645 speed;
#X text 456 -638 pitch;
#X text 83 -65 LOAD;
#X obj 140 378 nbx 3 30 -1e+37 1e+37 0 0 empty empty empty 0 -8 0 30
-262144 -1 -1 0 256;
#X obj 767 -343 notein;
#X floatatom 769 -274 5 0 0 0 - - -, f 5;
#X obj 523 -179 nbx 5 30 -1e+37 1e+37 0 0 empty empty empty 0 -8 0
30 -262144 -1 -1 0 256;
#X text 534 -199 Length;
#X msg 616 -363 89162;
#X obj 306 -503 r y1;
#X obj 313 -448 * 100;
#X obj 360 -250 master;
#X obj 741 -623 udpreceive;
#X obj 741 -601 unpackOSC;
#X msg 741 -652 port 4466;
#X obj 758 -568 routeOSC /cart;
#X obj 720 -447 *;
#X floatatom 720 -425 5 0 0 0 - - -, f 5;
#X obj 666 -516 routeOSC /y/;
#X obj 819 -494 routeOSC /x/;
#X floatatom 817 -443 5 0 0 0 - - -, f 5;
#X floatatom 942 -469 5 0 0 0 - - -, f 5;
#X obj 942 -450 * 100;
#X obj 942 -491 routeOSC /z/;
#X obj 819 -472 + 0.2;
#X obj 817 -424 * 100;
#X obj 687 -465 - 0.2;
#X floatatom 620 -455 5 0 0 0 - - -, f 5;
#X obj 915 -576 routeOSC /fist/;
#X floatatom 915 -554 5 0 0 0 - - -, f 5;
#X msg 246 -65 \; pd dsp 1;
#X obj 71 -567 loadbang;
#X obj 823 -673 loadbang;
#X floatatom 774 -113 5 0 0 0 - - -, f 5;
#X obj 773 -215 loadbang;
#X obj 248 -124 loadbang;
#X msg 779 -444 2000;
#X obj 915 -535 * 20;
#X msg 777 -171 40;
#X floatatom 1081 -548 5 0 0 0 - - -, f 5;
#X obj 1081 -529 * 20;
#X obj 1081 -570 routeOSC /velocity/;
#X msg 71 -531 XXX.wav;
#X obj 365 -368 stretch_module 1;
#X connect 2 0 27 4;
#X connect 9 0 59 3;
#X connect 10 0 59 4;
#X connect 11 0 59 5;
#X connect 12 0 43 0;
#X connect 12 0 59 6;
#X connect 20 1 21 0;
#X connect 24 0 59 7;
#X connect 25 0 26 0;
#X connect 26 0 59 2;
#X connect 28 0 29 0;
#X connect 29 0 31 0;
#X connect 29 0 44 0;
#X connect 29 0 57 0;
#X connect 30 0 28 0;
#X connect 31 0 34 0;
#X connect 31 0 35 0;
#X connect 31 0 39 0;
#X connect 32 0 33 0;
#X connect 33 0 59 1;
#X connect 34 0 42 0;
#X connect 34 0 52 0;
#X connect 35 0 40 0;
#X connect 36 0 41 0;
#X connect 37 0 38 0;
#X connect 38 0 10 0;
#X connect 39 0 37 0;
#X connect 40 0 36 0;
#X connect 41 0 11 0;
#X connect 42 0 32 0;
#X connect 44 0 45 0;
#X connect 45 0 53 0;
#X connect 47 0 58 0;
#X connect 48 0 30 0;
#X connect 49 0 2 0;
#X connect 50 0 54 0;
#X connect 51 0 46 0;
#X connect 52 0 32 1;
#X connect 54 0 49 0;
#X connect 55 0 56 0;
#X connect 56 0 12 0;
#X connect 57 0 55 0;
#X connect 58 0 59 0;
#X connect 59 0 27 0;
#X connect 59 1 0 0;
#X connect 59 2 1 0;
#X connect 59 3 3 0;
#X connect 59 4 4 0;
#X connect 59 5 22 0;
#X coords 0 804 1 803 100 100 0;
