#N canvas 1215 406 1165 615 10;
#X obj 359 -218 inlet;
#X obj 274 -219 inlet, f 6;
#X obj 191 -219 inlet;
#X floatatom 194 -42 5 0 0 0 - - -, f 5;
#X floatatom 314 -25 5 0 0 0 - - -, f 5;
#X obj 194 -65 sin;
#X obj 191 -196 s theta;
#X obj 274 -196 s phi;
#X obj 359 -195 s r;
#X obj 256 40 r r;
#X obj 194 82 *;
#X obj 314 79 *;
#X floatatom 114 126 5 0 0 0 - - -, f 5;
#X obj 314 -48 sin;
#X text 195 142 y;
#X text 123 143 x;
#X obj 402 -15 r theta;
#X obj 491 -23 r phi;
#X obj 194 -102 * 0.9;
#X obj 314 -85 * 0.9;
#X obj 402 70 +;
#X obj 402 47 cos;
#X obj 491 0 cos;
#X text 266 143 z;
#X obj 402 118 *;
#X obj 459 100 r r;
#X obj 402 93 / 2;
#X obj 107 239 outlet;
#X obj 185 239 outlet;
#X obj 257 250 outlet;
#X floatatom 256 126 5 0 0 0 - - -, f 5;
#X floatatom 184 126 5 0 0 0 - - -, f 5;
#X obj 194 -125 r phi;
#X obj 314 -111 r theta;
#X connect 0 0 8 0;
#X connect 1 0 7 0;
#X connect 2 0 6 0;
#X connect 3 0 10 0;
#X connect 4 0 11 0;
#X connect 5 0 3 0;
#X connect 9 0 10 1;
#X connect 9 0 11 1;
#X connect 10 0 12 0;
#X connect 11 0 31 0;
#X connect 12 0 27 0;
#X connect 13 0 4 0;
#X connect 16 0 21 0;
#X connect 17 0 22 0;
#X connect 18 0 5 0;
#X connect 19 0 13 0;
#X connect 20 0 26 0;
#X connect 21 0 20 0;
#X connect 22 0 20 1;
#X connect 24 0 30 0;
#X connect 25 0 24 1;
#X connect 26 0 24 0;
#X connect 30 0 29 0;
#X connect 31 0 28 0;
#X connect 32 0 18 0;
#X connect 33 0 19 0;
#X coords 0 -1 1 1 200 60 1 100 100;
