#N canvas 2506 344 1304 660 10;
#X obj 434 -162 loadbang;
#X obj 336 -136 inlet;
#X obj 170 -47 comport;
#X obj 209 -25 print errors;
#X obj 170 24 unpackOSC;
#X obj 118 58 routeOSC /x;
#X floatatom 118 126 5 0 0 0 - - -, f 5;
#X floatatom 219 127 5 0 0 0 - - -, f 5;
#X obj 219 60 routeOSC /y;
#X obj 600 20 routeOSC /z;
#X obj 118 149 outlet;
#X obj 219 149 outlet;
#X obj 313 195 outlet;
#X msg 393 -136 devicename /dev/ttyACM0 \, pollintervall 1;
#X obj 170 -135 mrpeach/slipenc 65536;
#X obj 170 -160 inlet;
#X msg 434 -99 baud 9600;
#X obj 170 -3 mrpeach/slipdec 65536;
#X floatatom 752 95 5 0 0 0 - - -, f 5;
#X obj 600 43 - 0.05;
#X floatatom 313 127 5 0 0 0 - - -, f 5;
#X obj 603 72 * 3.5;
#X floatatom 603 118 5 0 0 0 - - -, f 5;
#X obj 603 95 min 1;
#X obj 603 140 max 0;
#X connect 0 0 13 0;
#X connect 0 0 16 0;
#X connect 1 0 2 0;
#X connect 2 0 17 0;
#X connect 2 1 3 0;
#X connect 4 0 5 0;
#X connect 4 0 8 0;
#X connect 4 0 9 0;
#X connect 5 0 6 0;
#X connect 6 0 10 0;
#X connect 7 0 11 0;
#X connect 8 0 7 0;
#X connect 9 0 18 0;
#X connect 9 0 19 0;
#X connect 13 0 2 0;
#X connect 15 0 14 0;
#X connect 16 0 2 0;
#X connect 17 0 4 0;
#X connect 19 0 21 0;
#X connect 20 0 12 0;
#X connect 21 0 23 0;
#X connect 22 0 24 0;
#X connect 23 0 22 0;
#X connect 24 0 20 0;
#X coords 0 -1 1 1 321 77 1 100 100;
