#N canvas 1231 281 837 677 10;
#X obj 226 44 inlet;
#X obj 141 43 inlet, f 6;
#X obj 58 43 inlet;
#X obj 145 222 f;
#X obj 122 263 f;
#X obj 147 305 -;
#X obj 147 328 abs;
#X floatatom 148 375 5 0 0 0 - - -, f 5;
#X obj 147 350 * 10;
#X obj 197 167 t f b b;
#X obj 174 270 f;
#X obj 9 217 f;
#X obj -14 258 f;
#X obj 11 300 -;
#X obj 11 323 abs;
#X floatatom 12 370 5 0 0 0 - - -, f 5;
#X obj 11 345 * 10;
#X obj 61 162 t f b b;
#X obj 38 265 f;
#X obj 99 424 +;
#X obj 293 225 f;
#X obj 270 266 f;
#X obj 295 308 -;
#X obj 295 331 abs;
#X floatatom 296 378 5 0 0 0 - - -, f 5;
#X obj 295 353 * 10;
#X obj 345 170 t f b b;
#X obj 322 273 f;
#X floatatom 99 489 5 0 0 0 - - -, f 5;
#X obj 99 447 +;
#X obj 99 511 outlet;
#X obj 293 492 outlet;
#X obj 487 115 hsl 128 15 -1 1 0 0 empty empty empty -2 -8 0 10 -262144
-1 -1 5668 1;
#X obj 543 135 vsl 15 128 -1 1 0 0 empty empty empty 0 -9 0 10 -262144
-1 -1 0 1;
#X obj 61 137 r \$0-a1;
#X obj 197 142 r \$0-a2;
#X obj 345 145 r \$0-a3;
#X obj 58 66 s \$0-a1;
#X obj 141 66 s \$0-a2;
#X obj 226 67 s \$0-a3;
#X connect 0 0 31 0;
#X connect 0 0 39 0;
#X connect 1 0 33 0;
#X connect 1 0 38 0;
#X connect 2 0 32 0;
#X connect 2 0 37 0;
#X connect 3 0 4 1;
#X connect 4 0 5 0;
#X connect 5 0 6 0;
#X connect 6 0 8 0;
#X connect 7 0 19 1;
#X connect 8 0 7 0;
#X connect 9 0 3 1;
#X connect 9 0 10 1;
#X connect 9 1 4 0;
#X connect 9 1 10 0;
#X connect 9 2 3 0;
#X connect 10 0 5 1;
#X connect 11 0 12 1;
#X connect 12 0 13 0;
#X connect 13 0 14 0;
#X connect 14 0 16 0;
#X connect 15 0 19 0;
#X connect 16 0 15 0;
#X connect 17 0 11 1;
#X connect 17 0 18 1;
#X connect 17 1 12 0;
#X connect 17 1 18 0;
#X connect 17 2 11 0;
#X connect 18 0 13 1;
#X connect 19 0 29 0;
#X connect 20 0 21 1;
#X connect 21 0 22 0;
#X connect 22 0 23 0;
#X connect 23 0 25 0;
#X connect 24 0 29 1;
#X connect 25 0 24 0;
#X connect 26 0 20 1;
#X connect 26 0 27 1;
#X connect 26 1 21 0;
#X connect 26 1 27 0;
#X connect 26 2 20 0;
#X connect 27 0 22 1;
#X connect 28 0 30 0;
#X connect 29 0 28 0;
#X connect 34 0 17 0;
#X connect 35 0 9 0;
#X connect 36 0 26 0;
#X coords 0 -1 1 1 170 53 1 100 100;
