#N canvas 804 456 1304 660 10;
#X obj 332 -146 inlet;
#X obj 170 -47 comport;
#X obj 209 -25 print errors;
#X obj 170 24 unpackOSC;
#X obj 118 58 routeOSC /x;
#X floatatom 118 126 5 0 0 0 - - -, f 5;
#X floatatom 219 127 5 0 0 0 - - -, f 5;
#X obj 219 60 routeOSC /y;
#X obj 604 -55 routeOSC /z;
#X obj 118 149 outlet;
#X obj 219 149 outlet;
#X obj 313 195 outlet;
#X obj 741 -104 mrpeach/slipenc 65536;
#X msg 44 -111 baud 9600;
#X obj 170 -3 mrpeach/slipdec 65536;
#X obj 577 31 - 0.05;
#X floatatom 313 127 5 0 0 0 - - -, f 5;
#X floatatom 603 118 5 0 0 0 - - -, f 5;
#X obj 603 95 min 1;
#X obj 603 140 max 0;
#X obj 219 83 + 0.2;
#X obj 603 72 * 2.5;
#X obj 44 -174 inlet;
#X obj 723 -144 bng 15 250 50 0 empty empty empty 17 7 0 10 -262144
-1 -1;
#X floatatom 604 -32 5 0 0 0 - - -, f 5;
#X floatatom 855 -25 5 0 0 0 - - -, f 5;
#X obj 1032 -149 inlet;
#X connect 0 0 15 1;
#X connect 1 0 14 0;
#X connect 1 1 2 0;
#X connect 3 0 4 0;
#X connect 3 0 7 0;
#X connect 3 0 8 0;
#X connect 4 0 5 0;
#X connect 5 0 9 0;
#X connect 6 0 10 0;
#X connect 7 0 20 0;
#X connect 8 0 15 0;
#X connect 8 0 24 0;
#X connect 13 0 1 0;
#X connect 14 0 3 0;
#X connect 15 0 21 0;
#X connect 16 0 11 0;
#X connect 17 0 19 0;
#X connect 18 0 17 0;
#X connect 19 0 16 0;
#X connect 20 0 6 0;
#X connect 21 0 18 0;
#X connect 22 0 13 0;
#X connect 22 0 1 0;
#X connect 23 0 12 0;
#X connect 25 0 21 1;
#X coords 0 -1 1 1 321 77 1 100 100;
